<?xml version="1.0" encoding="utf-8"?>
<!-- Generator: Adobe Illustrator 25.0.1, SVG Export Plug-In . SVG Version: 6.00 Build 0)  -->
<svg version="1.1" id="Layer_1" xmlns="http://www.w3.org/2000/svg" xmlns:xlink="http://www.w3.org/1999/xlink" x="0px" y="0px"
	 viewBox="0 0 131.4 104.9" style="enable-background:new 0 0 131.4 104.9;" xml:space="preserve">
<style type="text/css">
	.st0{fill:#FFFFFF;}
</style>
<path class="st0" d="M77.7,78.2c0,0-0.8,8.6,20.8,12.2c21.5,3.6,20.3,14.4,20.3,14.4s3.5-2.9,4.5-7c0,0-2.1-11.4-23.4-11.6
	C78.6,86.2,77.7,78.2,77.7,78.2"/>
<path class="st0" d="M78.4,75.4c0,0,1.4,9.8,23.2,9.4c21.8-0.4,22.6,10.5,22.6,10.5s3-3.5,3.1-7.7c0,0-4.1-10.8-25.1-7.1
	C81.3,84.1,78.4,75.4,78.4,75.4"/>
<path class="st0" d="M78.7,72.5c0,0,4.9,10,26.1,6.3c21.2-3.7,23.6,6.8,23.6,6.8s2.3-3.8,1.9-7.9c0,0-5.7-9.9-25.5-3.1
	C85,81.4,78.7,72.5,78.7,72.5"/>
<path class="st0" d="M78.9,70.1c0,0,6.5,9.2,26.9,2.4c20.4-6.7,24.4,3.3,24.4,3.3s1.8-4.1,0.7-8.1c0,0-7.1-9-25.7,0.6
	C86.5,77.9,78.9,70.1,78.9,70.1"/>
<path class="st0" d="M79.5,67.5c0,0,7.9,7.9,27-1.9C125.5,55.7,131,65,131,65s1.1-4.3-0.6-8.1c0,0-8.4-7.7-25.3,4.6
	C88.3,73.8,79.5,67.5,79.5,67.5"/>
<path class="st0" d="M79.1,64.3c0,0,9.4,6.8,27-5.4c17.6-12.2,24.3-3.7,24.3-3.7s0.5-4.4-1.7-8c0,0-9.4-6.6-24.5,7.8
	C89.2,69.4,79.1,64.3,79.1,64.3"/>
<path class="st0" d="M79.1,61.8c0,0,10.8,5,25.2-9.5c14.4-14.5,22.2-7.7,22.2-7.7s-0.3-4.2-3-7.2c0,0-10-4.6-21.6,11.6
	S79.1,61.8,79.1,61.8"/>
<path class="st0" d="M79.5,59.6c0,0,11.9,1.7,22.2-14.2c10.3-15.9,18.7-11.2,18.7-11.2s-1.1-3.8-4.1-6c0,0-10-2.2-17.4,14.7
	C91.5,59.7,79.5,59.6,79.5,59.6"/>
<path class="st0" d="M78.6,57.3c0,0,11.6,0,18.9-17.4c7.3-17.5,16.4-14.3,16.4-14.3s-1.8-3.6-5.1-5.2c0,0-10.2-0.5-14.5,17.4
	C89.9,55.8,78.6,57.3,78.6,57.3"/>
<path class="st0" d="M77.8,52.8c0,0,10.7-1.9,14.8-18.7c4.1-16.8,12.8-15.2,12.8-15.2s-2.1-3-5.4-3.9c0,0-9.3,1-10.6,17.8
	C88,49.5,77.8,52.8,77.8,52.8"/>
<path class="st0" d="M75.9,48.3c0,0,8.6-2.1,11.1-19.2C89.4,12,98.2,12.8,98.2,12.8s-2.4-2.7-5.7-3.4c0,0-9.1,1.9-8.8,18.7
	C83.9,44.9,75.9,48.3,75.9,48.3"/>
<path class="st0" d="M72.5,43.6c0,0,7.9-2.6,7.6-19c-0.3-16.4,8.1-17,8.1-17s-2.6-2.2-5.9-2.4c0,0-8.3,3.1-5.5,18.9
	C79.7,39.8,72.5,43.6,72.5,43.6"/>
<path class="st0" d="M67.2,40.2c0,0,7.6-4,5.7-19.3C71,5.5,78.8,4.2,78.8,4.2S76.1,2.4,73,2.5c0,0-7.5,3.7-3.2,18.2
	C74,35.2,67.2,40.2,67.2,40.2"/>
<path class="st0" d="M62.6,38.1c0,0,7.1-4.4,3-19.3c-4-14.9,3.5-17.3,3.5-17.3s-2.9-1.4-5.9-0.8c0,0-6.9,4.7-0.7,18.4
	S62.6,38.1,62.6,38.1"/>
<path class="st0" d="M56.7,37c0,0,7-5.7,1.7-19.5C53.2,3.6,60.1,0.6,60.1,0.6s-2.9-1.1-5.7-0.3c0,0-6.1,5.1,1.1,17.7
	C62.7,30.6,56.7,37,56.7,37"/>
<path class="st0" d="M52.9,36.6c0,0,5.8-6.4-1.6-19.3s-1-16.9-1-16.9S47.3-0.2,44.7,1c0,0-5.2,6,3.9,17.3
	C57.6,29.6,52.9,36.6,52.9,36.6"/>
<path class="st0" d="M48.5,37.2c0,0,4.6-7.4-4.3-18.4C35.4,7.7,40.8,3,40.8,3s-3-0.1-5.2,1.4c0,0-4,6.4,6.2,15.7
	C52,29.4,48.5,37.2,48.5,37.2"/>
<path class="st0" d="M44.6,38.1c0,0,2.9-8.4-7.3-17.1S31.1,7,31.1,7s-2.8,0.4-4.6,2.3c0,0-2.6,6.7,8.7,13.5
	C46.4,29.6,44.6,38.1,44.6,38.1"/>
<path class="st0" d="M41.1,39.8c0,0,1.7-8.5-9.8-15.5c-11.5-7-8.3-12.9-8.3-12.9s-2.7,0.8-4.2,3c0,0-1.5,7,10.7,12
	C41.7,31.3,41.1,39.8,41.1,39.8"/>
<path class="st0" d="M39.4,41.7c0,0-0.4-8.2-13.1-12.7c-12.7-4.5-10.8-10.9-10.8-10.9S13,19.4,12,21.8c0,0,0,7.2,13,9.5
	C37.9,33.7,39.4,41.7,39.4,41.7"/>
<path class="st0" d="M36.6,43.6c0,0-1.5-7.2-14.7-9.8C8.6,31.2,9.5,24.5,9.5,24.5s-2.2,1.7-2.9,4.2c0,0,1.1,7.1,14.2,7.5
	C34.1,36.7,36.6,43.6,36.6,43.6"/>
<path class="st0" d="M34.9,47.1c0,0-2.6-7.5-16.1-7.6C5.3,39.4,5,32.6,5,32.6s-1.9,2.1-2.1,4.7c0,0,2.4,6.8,15.4,4.8
	C31.3,40.2,34.9,47.1,34.9,47.1"/>
<path class="st0" d="M33.3,50.5c0,0-4.5-6.1-17.4-4.5c-12.8,1.7-14-4.7-14-4.7s-1.5,2.2-1.3,4.7c0,0,3.2,6.1,15.3,2.5
	C28,45.1,33.3,50.5,33.3,50.5"/>
<path class="st0" d="M34,55.2c0,0-6.3-6.7-18.7-2.9C3,56.2,0.7,50.1,0.7,50.1s-1.1,2.5-0.5,4.9c0,0,4.2,5.5,15.5-0.1
	C27,49.3,34,55.2,34,55.2"/>
<path class="st0" d="M34.5,58.8c0,0-7.5-5.4-18.9,0.7C4.3,65.7,0.8,60.1,0.8,60.1S0.2,62.8,1.3,65c0,0,5.2,4.6,15.2-3
	C26.5,54.3,34.5,58.8,34.5,58.8"/>
<path class="st0" d="M34.7,61.1c0,0-8.3-3.2-17.3,5.3c-9,8.5-13.6,4.2-13.6,4.2s0.1,2.6,1.7,4.4c0,0,5.9,3,13.3-6.6
	C26.2,58.9,34.7,61.1,34.7,61.1"/>
<path class="st0" d="M35.7,63.4c0,0-8.4-1.3-15.2,8.4c-6.8,9.7-11.9,6.6-11.9,6.6s0.6,2.4,2.4,3.8c0,0,6.2,1.6,11.2-8.8
	C27.2,63,35.7,63.4,35.7,63.4"/>
<path class="st0" d="M37.1,64.9c0,0-8.5,0.6-12.9,11.6c-4.4,11-10.1,9.1-10.1,9.1s1.1,2.2,3.3,3.2c0,0,6.4,0.2,8.9-11.1
	C28.8,66.5,37.1,64.9,37.1,64.9"/>
<path class="st0" d="M40.2,67.6c0,0-8.4,1.8-11.1,13.2c-2.8,11.5-8.7,10.4-8.7,10.4s1.4,2,3.7,2.7c0,0,6.4-0.7,7.3-12.2
	C32.1,70.3,40.2,67.6,40.2,67.6"/>
<path class="st0" d="M43,69.2c0,0-8,2.9-9.2,14.7c-1.1,11.8-7.2,11.5-7.2,11.5s1.7,1.8,4,2.2c0,0,6.2-1.6,5.5-13.1
	C35.4,72.9,43,69.2,43,69.2"/>
<path class="st0" d="M44.6,69.9c0,0-7.1,4.2-6,15.6c1.1,11.4-4.7,12.2-4.7,12.2s2,1.4,4.2,1.3c0,0,5.6-2.6,2.8-13.4
	C38.1,74.8,44.6,69.9,44.6,69.9"/>
<path class="st0" d="M47.6,69.7c0,0-6.2,5.4-3.2,16.4c3.1,11-2.5,12.9-2.5,12.9s2.2,1,4.4,0.6c0,0,5.1-3.5,0.4-13.7
	C42,75.7,47.6,69.7,47.6,69.7"/>
<path class="st0" d="M50.3,69.5c0,0-5.3,6.3-0.5,16.7c4.8,10.4-0.4,13.1-0.4,13.1s2.3,0.7,4.4-0.1c0,0,4.4-4.3-1.8-13.6
	C45.8,76.3,50.3,69.5,50.3,69.5"/>
<path class="st0" d="M52.3,69.8c0,0-4,6.9,2.3,16c6.3,9.1,1.8,12.6,1.8,12.6s2.3,0.3,4.2-0.8c0,0,3.5-4.8-4-12.7
	C49.1,77,52.3,69.8,52.3,69.8"/>
<path class="st0" d="M54.4,69.6c0,0-2.4,7,5,14.2c7.4,7.2,3.9,11.1,3.9,11.1s2.2-0.2,3.7-1.5c0,0,2.3-5-5.9-10.8
	C52.8,76.7,54.4,69.6,54.4,69.6"/>
<path class="st0" d="M55.5,69.5c0,0-0.4,6.6,7.9,11.1c8.2,4.4,6.2,8.7,6.2,8.7s1.8-0.7,2.8-2.2c0,0,0.8-4.9-7.9-7.9
	C55.9,76,55.5,69.5,55.5,69.5"/>
<path class="st0" d="M57.3,68.4c0,0,1,5.9,9.2,8.1c8.1,2.2,7.2,6.4,7.2,6.4s1.5-1,2-2.5c0,0-0.3-4.5-8.5-5.4
	C59,74.1,57.3,68.4,57.3,68.4"/>
<path class="st0" d="M58.2,66.5c0,0,2.2,5.1,10,5.4c7.8,0.3,7.8,4.2,7.8,4.2s1.1-1.2,1.3-2.7c0,0-1.2-4-8.8-3.1
	C61,71.3,58.2,66.5,58.2,66.5"/>
<path class="st0" d="M58.4,65.1c0,0,3.1,4.6,10.8,3.4c7.7-1.1,8.5,2.7,8.5,2.7s0.9-1.4,0.8-2.9c0,0-2-3.6-9.2-1.4
	C62,69.3,58.4,65.1,58.4,65.1"/>
<path class="st0" d="M58.1,63.5c0,0,3.8,4,11.2,1.7c7.4-2.3,8.8,1.3,8.8,1.3s0.7-1.5,0.3-2.9c0,0-2.5-3.3-9.3,0.1
	C62.3,67,58.1,63.5,58.1,63.5"/>
<path class="st0" d="M58,61.2c0,0,4.3,3.5,11.4,0.2c7-3.3,8.9,0.1,8.9,0.1s0.4-1.6-0.1-2.9c0,0-3-2.9-9.2,1.4
	C62.7,64.2,58,61.2,58,61.2"/>
<path class="st0" d="M57.8,59.7c0,0,4.9,2.7,11.2-1.7s8.8-1.4,8.8-1.4s0.2-1.6-0.6-2.9c0,0-3.4-2.4-8.9,2.8
	C62.9,61.8,57.8,59.7,57.8,59.7"/>
<path class="st0" d="M57.3,58c0,0,5.2,1.9,10.8-3.4c5.6-5.4,8.5-2.7,8.5-2.7s-0.1-1.6-1.1-2.8c0,0-3.7-1.8-8.3,4.2
	C62.6,59.3,57.3,58,57.3,58"/>
<path class="st0" d="M56.9,55.6c0,0,5.1,1.1,9.5-4.5c4.5-5.7,7.5-3.6,7.5-3.6s-0.3-1.5-1.3-2.4c0,0-3.7-1.2-7.1,4.9
	C62,56.1,56.9,55.6,56.9,55.6"/>
<path class="st0" d="M57,54.2c0,0,4.6-0.2,7.1-6c2.5-5.8,5.5-4.7,5.5-4.7s-0.6-1.2-1.7-1.7c0,0-3.4-0.2-4.9,5.8
	C61.5,53.5,57,54.2,57,54.2"/>
<path class="st0" d="M56.8,52.8c0,0,3.8-1.4,4.3-7c0.5-5.6,3.4-5.5,3.4-5.5s-0.8-0.9-1.9-1c0,0-2.9,0.8-2.6,6.2
	C60.4,51,56.8,52.8,56.8,52.8"/>
<path class="st0" d="M56.2,52.7c0,0,3.2-2.4,2-8c-1.2-5.5,1.6-6.2,1.6-6.2s-1-0.6-2.1-0.4c0,0-2.6,1.6-0.6,6.7
	C59.1,49.9,56.2,52.7,56.2,52.7"/>
<path class="st0" d="M53.9,50.8c0,0,2.6-2.4,1-7.1c-1.5-4.7,0.8-5.5,0.8-5.5s-1-0.4-1.9-0.2c0,0-2.1,1.6,0.1,5.9
	C56.1,48.1,53.9,50.8,53.9,50.8"/>
<path class="st0" d="M51.8,50.4c0,0,2.1-2.7,0-6.9s0-5.4,0-5.4s-1-0.3-1.8,0.1c0,0-1.8,1.8,0.9,5.6C53.6,47.6,51.8,50.4,51.8,50.4"
	/>
<path class="st0" d="M49.8,50.7c0,0,1.5-3-1.4-6.8c-3-3.7-1.1-5.3-1.1-5.3s-1-0.1-1.8,0.5c0,0-1.4,2.1,2.1,5.3
	C51,47.5,49.8,50.7,49.8,50.7"/>
<path class="st0" d="M48.4,51.3c0,0,0.5-3.4-3.5-6c-4-2.7-2.7-4.7-2.7-4.7s-1,0.3-1.5,1c0,0-0.6,2.5,3.6,4.4
	C48.6,47.9,48.4,51.3,48.4,51.3"/>
<path class="st0" d="M46.7,52.8c0,0-0.2-3.4-4.7-5.2c-4.4-1.8-3.7-4.1-3.7-4.1s-0.9,0.4-1.3,1.3c0,0-0.1,2.5,4.5,3.6
	S46.7,52.8,46.7,52.8"/>
<path class="st0" d="M45.2,53.5c0,0-1.1-2.7-5.1-3c-4.1-0.3-4-2.3-4-2.3s-0.6,0.6-0.7,1.4c0,0,0.6,2.1,4.6,1.7
	C43.9,51,45.2,53.5,45.2,53.5"/>
<path class="st0" d="M45.3,54.8c0,0-1.8-2.3-5.8-1.4c-4,0.9-4.5-1.1-4.5-1.1s-0.4,0.7-0.3,1.5c0,0,1.2,1.8,4.9,0.3
	C43.3,52.8,45.3,54.8,45.3,54.8"/>
<path class="st0" d="M44.5,55.8c0,0-2.1-1.5-5.2,0.2c-3.1,1.7-4.1,0.2-4.1,0.2S35,57,35.3,57.6c0,0,1.4,1.3,4.2-0.9
	C42.3,54.6,44.5,55.8,44.5,55.8"/>
<path class="st0" d="M44.6,56.5c0,0-2.5-0.7-4.8,2c-2.4,2.7-3.8,1.6-3.8,1.6s0.1,0.7,0.6,1.2c0,0,1.8,0.7,3.6-2.2
	C42,56.1,44.6,56.5,44.6,56.5"/>
<path class="st0" d="M45.3,57.8c0,0-2.6,0-4.1,3.2c-1.6,3.2-3.2,2.5-3.2,2.5s0.3,0.7,0.9,1c0,0,1.9,0.2,2.9-3.1S45.3,57.8,45.3,57.8
	"/>
<path class="st0" d="M46.1,58.7c0,0-2.5,0.7-3,4.2c-0.6,3.5-2.4,3.3-2.4,3.3s0.5,0.6,1.2,0.7c0,0,1.9-0.4,1.9-3.8
	C43.8,59.7,46.1,58.7,46.1,58.7"/>
<path class="st0" d="M47.4,59.4c0,0-2,1.3-1.5,4.5c0.5,3.2-1.2,3.5-1.2,3.5s0.6,0.4,1.2,0.3c0,0,1.5-0.8,0.6-3.8
	C45.6,60.9,47.4,59.4,47.4,59.4"/>
<path class="st0" d="M49.1,59.7c0,0-1.6,1.7-0.4,4.7s-0.3,3.7-0.3,3.7s0.6,0.2,1.2,0c0,0,1.3-1.2-0.3-3.9
	C47.8,61.6,49.1,59.7,49.1,59.7"/>
<path class="st0" d="M50.9,60.2c0,0-1.2,1.7,0.3,4.2c1.5,2.5,0.2,3.3,0.2,3.3s0.6,0.1,1.1-0.1c0,0,1-1.2-0.8-3.4
	C49.9,62,50.9,60.2,50.9,60.2"/>
<path class="st0" d="M52.7,59.8c0,0-0.9,1.9,0.9,4.1c1.8,2.3,0.7,3.2,0.7,3.2s0.6,0,1.1-0.3c0,0,0.8-1.3-1.3-3.2
	C52,61.8,52.7,59.8,52.7,59.8"/>
<path class="st0" d="M53.6,59.9c0,0-0.4,1.7,1.6,3.2c2,1.5,1.3,2.5,1.3,2.5s0.5-0.1,0.8-0.5c0,0,0.4-1.3-1.8-2.4
	C53.5,61.6,53.6,59.9,53.6,59.9"/>
</svg>
