<?xml version="1.0" encoding="utf-8"?>
<!-- Generator: Adobe Illustrator 24.3.0, SVG Export Plug-In . SVG Version: 6.00 Build 0)  -->
<svg version="1.1" id="Layer_1" xmlns="http://www.w3.org/2000/svg" xmlns:xlink="http://www.w3.org/1999/xlink" x="0px" y="0px"
	 viewBox="0 0 24 24" style="enable-background:new 0 0 24 24;" xml:space="preserve">
<style type="text/css">
	.st0{fill:#FFFFFF;}
</style>
<path class="st0" d="M21.4,6.1l-5.5,5.6l5.6,6.1c0.1-0.2,0.1-0.4,0.1-0.6V6.9C21.6,6.6,21.5,6.3,21.4,6.1"/>
<path class="st0" d="M19.7,5H4.3C4,5,3.8,5.1,3.5,5.2l8,8c0.2,0.2,0.7,0.2,0.9,0l8-8C20.2,5.1,20,5,19.7,5"/>
<path class="st0" d="M14.9,12.5l-1.6,1.6c-0.4,0.4-0.8,0.6-1.4,0.6s-1-0.2-1.4-0.6l-1.5-1.5l-5.7,6.2C3.7,18.9,4,19,4.3,19h15.4
	c0.4,0,0.7-0.1,1-0.3L14.9,12.5z"/>
<path class="st0" d="M2.6,6.1C2.5,6.3,2.4,6.6,2.4,6.9v10.2c0,0.3,0.1,0.5,0.2,0.8l5.7-6.1L2.6,6.1z"/>
</svg>
