<?xml version="1.0" encoding="utf-8"?>
<!-- Generator: Adobe Illustrator 24.3.0, SVG Export Plug-In . SVG Version: 6.00 Build 0)  -->
<svg version="1.1" id="Layer_1" xmlns="http://www.w3.org/2000/svg" xmlns:xlink="http://www.w3.org/1999/xlink" x="0px" y="0px"
	 viewBox="0 0 24 24" style="enable-background:new 0 0 24 24;" xml:space="preserve">
<style type="text/css">
	.st0{fill:#FFFFFF;}
</style>
<path class="st0" d="M15.2,12c0,1.7-1.4,3.2-3.2,3.2c-1.7,0-3.2-1.4-3.2-3.2c0-1.7,1.4-3.2,3.2-3.2C13.7,8.8,15.2,10.3,15.2,12"/>
<path class="st0" d="M18,7C17.5,7,17,6.5,17,6s0.5-1.1,1.1-1.1c0.6,0,1.1,0.5,1.1,1.1S18.6,7,18,7 M12,17.3c-2.9,0-5.3-2.4-5.3-5.3
	S9.1,6.7,12,6.7s5.3,2.4,5.3,5.3S14.9,17.3,12,17.3 M17.3,2.4H6.7c-2.3,0-4.2,1.9-4.2,4.2v10.7c0,2.3,1.9,4.2,4.2,4.2h10.7
	c2.3,0,4.2-1.9,4.2-4.2V6.7C21.6,4.3,19.7,2.4,17.3,2.4"/>
</svg>
