<?xml version="1.0" encoding="utf-8"?>
<!-- Generator: Adobe Illustrator 24.3.0, SVG Export Plug-In . SVG Version: 6.00 Build 0)  -->
<svg version="1.1" id="Layer_1" xmlns="http://www.w3.org/2000/svg" xmlns:xlink="http://www.w3.org/1999/xlink" x="0px" y="0px"
	 viewBox="0 0 114.6 91.5" style="enable-background:new 0 0 114.6 91.5;" xml:space="preserve">
<style type="text/css">
	.st0{fill:#4A3E3C;}
</style>
<path class="st0" d="M67.8,68.2c0,0-0.7,7.5,18.1,10.6c18.8,3.1,17.7,12.6,17.7,12.6s3.1-2.5,3.9-6.1c0,0-1.8-9.9-20.4-10.1
	C68.5,75.2,67.8,68.2,67.8,68.2"/>
<path class="st0" d="M68.4,65.7c0,0,1.2,8.5,20.3,8.2c19-0.3,19.7,9.2,19.7,9.2s2.6-3,2.7-6.7c0,0-3.6-9.4-21.9-6.2
	C70.9,73.4,68.4,65.7,68.4,65.7"/>
<path class="st0" d="M68.7,63.3c0,0,4.3,8.7,22.8,5.5c18.5-3.2,20.6,5.9,20.6,5.9s2-3.3,1.6-6.9c0,0-5-8.6-22.3-2.7
	C74.1,71,68.7,63.3,68.7,63.3"/>
<path class="st0" d="M68.9,61.1c0,0,5.7,8,23.4,2.1c17.8-5.9,21.3,2.8,21.3,2.8s1.5-3.6,0.6-7.1c0,0-6.2-7.8-22.4,0.6
	C75.5,68,68.9,61.1,68.9,61.1"/>
<path class="st0" d="M69.3,58.8c0,0,6.9,6.9,23.5-1.7c16.6-8.6,21.4-0.5,21.4-0.5s0.9-3.8-0.6-7.1c0,0-7.4-6.8-22,4
	C77,64.4,69.3,58.8,69.3,58.8"/>
<path class="st0" d="M69,56c0,0,8.2,5.9,23.5-4.7c15.4-10.6,21.2-3.2,21.2-3.2s0.4-3.9-1.5-6.9c0,0-8.2-5.7-21.3,6.8
	C77.8,60.5,69,56,69,56"/>
<path class="st0" d="M69,53.9c0,0,9.5,4.4,22-8.3C103.6,33,110.3,39,110.3,39s-0.3-3.7-2.6-6.3c0,0-8.7-4-18.8,10.1
	C78.8,56.9,69,53.9,69,53.9"/>
<path class="st0" d="M69.3,51.9c0,0,10.4,1.5,19.4-12.4c8.9-13.9,16.3-9.8,16.3-9.8s-1-3.3-3.6-5.2c0,0-8.7-2-15.2,12.8
	C79.8,52.1,69.3,51.9,69.3,51.9"/>
<path class="st0" d="M68.5,50c0,0,10.1,0,16.5-15.2c6.4-15.2,14.3-12.4,14.3-12.4s-1.5-3.1-4.5-4.5c0,0-8.9-0.4-12.7,15.2
	C78.4,48.7,68.5,50,68.5,50"/>
<path class="st0" d="M67.9,46c0,0,9.3-1.7,12.9-16.3c3.6-14.6,11.1-13.3,11.1-13.3S90,13.9,87.2,13c0,0-8.1,0.9-9.3,15.5
	C76.8,43.2,67.9,46,67.9,46"/>
<path class="st0" d="M66.2,42.1c0,0,7.5-1.8,9.6-16.7c2.1-14.9,9.8-14.3,9.8-14.3s-2.1-2.4-5-3c0,0-8,1.6-7.7,16.3
	C73.2,39.2,66.2,42.1,66.2,42.1"/>
<path class="st0" d="M63.2,38c0,0,6.9-2.3,6.7-16.6c-0.3-14.3,7-14.8,7-14.8s-2.3-1.9-5.1-2.1c0,0-7.2,2.7-4.8,16.5
	C69.5,34.7,63.2,38,63.2,38"/>
<path class="st0" d="M58.6,35c0,0,6.7-3.5,5-16.9s5.1-14.5,5.1-14.5s-2.4-1.6-5-1.4c0,0-6.5,3.2-2.8,15.8C64.5,30.7,58.6,35,58.6,35
	"/>
<path class="st0" d="M54.6,33.2c0,0,6.2-3.8,2.7-16.8c-3.5-13,3-15.1,3-15.1s-2.6-1.3-5.1-0.7c0,0-6,4.1-0.6,16.1
	C60,28.7,54.6,33.2,54.6,33.2"/>
<path class="st0" d="M49.5,32.3c0,0,6.1-5,1.5-17C46.4,3.1,52.5,0.5,52.5,0.5s-2.6-1-5-0.2c0,0-5.3,4.5,0.9,15.4
	C54.7,26.7,49.5,32.3,49.5,32.3"/>
<path class="st0" d="M46.2,31.9c0,0,5.1-5.6-1.4-16.8C38.4,3.9,43.9,0.3,43.9,0.3s-2.7-0.6-5,0.6c0,0-4.6,5.2,3.4,15.1
	C50.3,25.8,46.2,31.9,46.2,31.9"/>
<path class="st0" d="M42.3,32.4c0,0,4-6.5-3.7-16.1c-7.7-9.6-3-13.7-3-13.7S33,2.5,31,3.9c0,0-3.5,5.6,5.4,13.7
	C45.4,25.6,42.3,32.4,42.3,32.4"/>
<path class="st0" d="M38.9,33.2c0,0,2.5-7.3-6.4-14.9c-8.9-7.6-5.3-12.3-5.3-12.3s-2.4,0.3-4,2c0,0-2.2,5.8,7.6,11.8
	C40.5,25.8,38.9,33.2,38.9,33.2"/>
<path class="st0" d="M35.9,34.7c0,0,1.5-7.4-8.6-13.5c-10-6.1-7.2-11.3-7.2-11.3s-2.4,0.7-3.7,2.6c0,0-1.3,6.1,9.3,10.5
	C36.4,27.3,35.9,34.7,35.9,34.7"/>
<path class="st0" d="M34.4,36.4c0,0-0.3-7.1-11.4-11c-11.1-3.9-9.4-9.5-9.4-9.5s-2.2,1.2-3,3.3c0,0,0,6.2,11.3,8.3
	C33.1,29.4,34.4,36.4,34.4,36.4"/>
<path class="st0" d="M31.9,38c0,0-1.3-6.3-12.8-8.5C7.5,27.2,8.3,21.4,8.3,21.4s-2,1.5-2.5,3.7c0,0,1,6.2,12.4,6.6
	C29.7,32,31.9,38,31.9,38"/>
<path class="st0" d="M30.4,41.1c0,0-2.3-6.6-14-6.7c-11.8-0.1-12-6-12-6s-1.6,1.8-1.8,4.1c0,0,2.1,5.9,13.4,4.2S30.4,41.1,30.4,41.1
	"/>
<path class="st0" d="M29.1,44.1c0,0-4-5.3-15.2-3.9C2.7,41.6,1.7,36.1,1.7,36.1S0.4,38,0.5,40.2c0,0,2.8,5.3,13.3,2.2
	C24.4,39.3,29.1,44.1,29.1,44.1"/>
<path class="st0" d="M29.7,48.1c0,0-5.5-5.9-16.3-2.5C2.6,49,0.6,43.7,0.6,43.7s-1,2.1-0.4,4.3c0,0,3.7,4.8,13.5-0.1
	S29.7,48.1,29.7,48.1"/>
<path class="st0" d="M30.1,51.3c0,0-6.5-4.7-16.5,0.6c-9.9,5.3-12.9,0.5-12.9,0.5s-0.5,2.3,0.4,4.3c0,0,4.5,4,13.2-2.7
	C23.1,47.4,30.1,51.3,30.1,51.3"/>
<path class="st0" d="M30.3,53.3c0,0-7.2-2.8-15.1,4.6c-7.9,7.4-11.9,3.7-11.9,3.7s0.1,2.3,1.4,3.8c0,0,5.2,2.6,11.6-5.7
	C22.8,51.4,30.3,53.3,30.3,53.3"/>
<path class="st0" d="M31.1,55.3c0,0-7.4-1.2-13.3,7.3C12,71.1,7.5,68.4,7.5,68.4s0.5,2.1,2.1,3.3c0,0,5.4,1.4,9.8-7.7
	C23.7,55,31.1,55.3,31.1,55.3"/>
<path class="st0" d="M32.4,56.6c0,0-7.4,0.5-11.3,10.1c-3.8,9.6-8.8,7.9-8.8,7.9s1,1.9,2.8,2.8c0,0,5.6,0.2,7.8-9.6
	C25.1,58,32.4,56.6,32.4,56.6"/>
<path class="st0" d="M35,59c0,0-7.3,1.5-9.7,11.6s-7.6,9.1-7.6,9.1s1.3,1.8,3.2,2.3c0,0,5.5-0.6,6.3-10.6C28,61.3,35,59,35,59"/>
<path class="st0" d="M37.5,60.4c0,0-7,2.5-8,12.8s-6.3,10-6.3,10s1.5,1.6,3.5,1.9c0,0,5.4-1.4,4.8-11.4
	C30.9,63.6,37.5,60.4,37.5,60.4"/>
<path class="st0" d="M38.9,60.9c0,0-6.2,3.7-5.2,13.6c1,9.9-4.1,10.7-4.1,10.7s1.7,1.2,3.7,1.2c0,0,4.9-2.3,2.4-11.7
	S38.9,60.9,38.9,60.9"/>
<path class="st0" d="M41.5,60.8c0,0-5.4,4.7-2.8,14.3c2.7,9.6-2.1,11.2-2.1,11.2s1.9,0.9,3.8,0.5c0,0,4.4-3.1,0.3-11.9
	C36.7,66,41.5,60.8,41.5,60.8"/>
<path class="st0" d="M43.9,60.6c0,0-4.6,5.5-0.5,14.5c4.2,9.1-0.3,11.4-0.3,11.4s2,0.6,3.8-0.1c0,0,3.9-3.7-1.6-11.8
	C39.9,66.5,43.9,60.6,43.9,60.6"/>
<path class="st0" d="M45.6,60.9c0,0-3.5,6,2,14c5.5,8,1.6,11,1.6,11s2,0.2,3.7-0.7c0,0,3.1-4.2-3.5-11
	C42.8,67.2,45.6,60.9,45.6,60.9"/>
<path class="st0" d="M47.4,60.7c0,0-2.1,6.1,4.4,12.4c6.5,6.3,3.4,9.7,3.4,9.7s1.9-0.1,3.2-1.3c0,0,2-4.4-5.2-9.5
	C46,66.9,47.4,60.7,47.4,60.7"/>
<path class="st0" d="M48.4,60.6c0,0-0.3,5.8,6.9,9.7c7.2,3.9,5.4,7.6,5.4,7.6s1.6-0.6,2.4-1.9c0,0,0.7-4.3-6.9-6.9
	C48.8,66.3,48.4,60.6,48.4,60.6"/>
<path class="st0" d="M50,59.7c0,0,0.9,5.1,8,7.1c7.1,1.9,6.3,5.5,6.3,5.5s1.3-0.8,1.8-2.2c0,0-0.3-3.9-7.4-4.7
	C51.5,64.6,50,59.7,50,59.7"/>
<path class="st0" d="M50.8,58c0,0,1.9,4.4,8.7,4.7c6.8,0.3,6.8,3.7,6.8,3.7s1-1,1.1-2.3c0,0-1.1-3.4-7.7-2.7
	C53.2,62.2,50.8,58,50.8,58"/>
<path class="st0" d="M51,56.8c0,0,2.7,4,9.4,3c6.7-1,7.4,2.3,7.4,2.3s0.8-1.2,0.7-2.5c0,0-1.7-3.2-8.1-1.2
	C54.1,60.5,51,56.8,51,56.8"/>
<path class="st0" d="M50.7,55.4c0,0,3.3,3.5,9.8,1.5c6.5-2,7.7,1.2,7.7,1.2s0.6-1.3,0.3-2.6c0,0-2.2-2.9-8.1,0.1
	C54.4,58.5,50.7,55.4,50.7,55.4"/>
<path class="st0" d="M50.6,53.4c0,0,3.8,3,9.9,0.1c6.1-2.9,7.8,0.1,7.8,0.1s0.4-1.4-0.1-2.6c0,0-2.6-2.5-8.1,1.2
	C54.7,56,50.6,53.4,50.6,53.4"/>
<path class="st0" d="M50.4,52.1c0,0,4.2,2.4,9.8-1.5c5.6-3.9,7.7-1.2,7.7-1.2s0.2-1.4-0.5-2.5c0,0-3-2.1-7.7,2.5
	C54.8,53.9,50.4,52.1,50.4,52.1"/>
<path class="st0" d="M49.9,50.6c0,0,4.6,1.7,9.5-3c4.9-4.7,7.4-2.4,7.4-2.4s-0.1-1.4-0.9-2.4c0,0-3.3-1.6-7.3,3.7
	S49.9,50.6,49.9,50.6"/>
<path class="st0" d="M49.6,48.5c0,0,4.4,1,8.3-4c3.9-4.9,6.5-3.1,6.5-3.1s-0.2-1.3-1.2-2.1c0,0-3.2-1.1-6.2,4.3
	C54.1,49,49.6,48.5,49.6,48.5"/>
<path class="st0" d="M49.8,47.3c0,0,4-0.2,6.2-5.2c2.2-5.1,4.8-4.1,4.8-4.1s-0.5-1-1.5-1.5c0,0-3-0.2-4.3,5.1
	C53.7,46.7,49.8,47.3,49.8,47.3"/>
<path class="st0" d="M49.6,46.1c0,0,3.3-1.2,3.8-6.1c0.4-4.9,2.9-4.8,2.9-4.8s-0.7-0.7-1.7-0.9c0,0-2.6,0.7-2.2,5.4
	C52.7,44.5,49.6,46.1,49.6,46.1"/>
<path class="st0" d="M49,45.9c0,0,2.8-2.1,1.8-6.9c-1-4.8,1.4-5.4,1.4-5.4s-0.9-0.5-1.9-0.4c0,0-2.3,1.4-0.5,5.9
	C51.5,43.5,49,45.9,49,45.9"/>
<path class="st0" d="M47,44.3c0,0,2.2-2.1,0.9-6.2c-1.3-4.1,0.7-4.8,0.7-4.8s-0.8-0.4-1.6-0.1c0,0-1.8,1.4,0.1,5.1
	C49,42,47,44.3,47,44.3"/>
<path class="st0" d="M45.2,44c0,0,1.9-2.3,0-6c-1.8-3.7,0-4.7,0-4.7s-0.8-0.2-1.6,0.1c0,0-1.6,1.6,0.8,4.9
	C46.8,41.5,45.2,44,45.2,44"/>
<path class="st0" d="M43.5,44.2c0,0,1.3-2.7-1.2-5.9c-2.6-3.3-1-4.6-1-4.6s-0.9-0.1-1.5,0.4c0,0-1.2,1.9,1.8,4.6
	C44.5,41.5,43.5,44.2,43.5,44.2"/>
<path class="st0" d="M42.2,44.8c0,0,0.4-2.9-3-5.2c-3.5-2.3-2.4-4.1-2.4-4.1s-0.8,0.2-1.3,0.9c0,0-0.6,2.1,3.1,3.9
	C42.3,41.8,42.2,44.8,42.2,44.8"/>
<path class="st0" d="M40.7,46.1c0,0-0.2-3-4.1-4.5C32.8,40,33.5,38,33.5,38s-0.8,0.4-1.1,1.1c0,0-0.1,2.2,3.9,3.1
	C40.2,43.2,40.7,46.1,40.7,46.1"/>
<path class="st0" d="M39.4,46.7c0,0-0.9-2.3-4.5-2.6c-3.5-0.2-3.5-2-3.5-2s-0.5,0.5-0.6,1.2c0,0,0.5,1.8,4,1.5
	C38.3,44.5,39.4,46.7,39.4,46.7"/>
<path class="st0" d="M39.5,47.8c0,0-1.6-2-5-1.2c-3.5,0.8-4-0.9-4-0.9s-0.4,0.6-0.2,1.3c0,0,1,1.6,4.2,0.3
	C37.7,46,39.5,47.8,39.5,47.8"/>
<path class="st0" d="M38.8,48.7c0,0-1.8-1.3-4.6,0.2c-2.7,1.5-3.6,0.2-3.6,0.2s-0.1,0.6,0.1,1.2c0,0,1.3,1.1,3.7-0.8
	C36.9,47.6,38.8,48.7,38.8,48.7"/>
<path class="st0" d="M38.9,49.3c0,0-2.2-0.6-4.2,1.7c-2.1,2.3-3.3,1.4-3.3,1.4s0.1,0.6,0.5,1.1c0,0,1.6,0.6,3.2-2
	C36.7,49,38.9,49.3,38.9,49.3"/>
<path class="st0" d="M39.5,50.4c0,0-2.2,0-3.6,2.8c-1.4,2.8-2.8,2.2-2.8,2.2s0.3,0.6,0.8,0.9c0,0,1.7,0.2,2.6-2.7
	C37.3,50.7,39.5,50.4,39.5,50.4"/>
<path class="st0" d="M40.2,51.2c0,0-2.1,0.6-2.6,3.7c-0.5,3.1-2.1,2.9-2.1,2.9s0.4,0.5,1,0.6c0,0,1.6-0.3,1.6-3.3
	C38.2,52.1,40.2,51.2,40.2,51.2"/>
<path class="st0" d="M41.3,51.8c0,0-1.7,1.1-1.3,3.9s-1,3.1-1,3.1s0.5,0.3,1.1,0.3c0,0,1.3-0.7,0.5-3.3
	C39.8,53.1,41.3,51.8,41.3,51.8"/>
<path class="st0" d="M42.9,52.1c0,0-1.4,1.5-0.3,4.1c1.1,2.6-0.2,3.2-0.2,3.2s0.6,0.2,1.1,0c0,0,1.1-1-0.3-3.4
	C41.7,53.7,42.9,52.1,42.9,52.1"/>
<path class="st0" d="M44.4,52.5c0,0-1,1.5,0.2,3.7c1.3,2.2,0.2,2.9,0.2,2.9s0.5,0.1,1-0.1c0,0,0.9-1-0.7-3
	C43.5,54.1,44.4,52.5,44.4,52.5"/>
<path class="st0" d="M45.9,52.2c0,0-0.8,1.6,0.8,3.6c1.6,2,0.6,2.8,0.6,2.8s0.5,0,0.9-0.3c0,0,0.7-1.2-1.1-2.8
	C45.3,53.9,45.9,52.2,45.9,52.2"/>
<path class="st0" d="M46.8,52.2c0,0-0.3,1.5,1.4,2.8c1.7,1.3,1.1,2.2,1.1,2.2s0.4-0.1,0.7-0.4c0,0,0.3-1.1-1.5-2.1
	C46.6,53.8,46.8,52.2,46.8,52.2"/>
</svg>
