<?xml version="1.0" encoding="utf-8"?>
<!-- Generator: Adobe Illustrator 24.3.0, SVG Export Plug-In . SVG Version: 6.00 Build 0)  -->
<svg version="1.1" id="Layer_1" xmlns="http://www.w3.org/2000/svg" xmlns:xlink="http://www.w3.org/1999/xlink" x="0px" y="0px"
	 viewBox="0 0 267.7 176.1" style="enable-background:new 0 0 267.7 176.1;" xml:space="preserve">
<style type="text/css">
	.st0{fill:#CA6757;}
	.st1{fill:#FFFFFF;}
</style>
<path class="st0" d="M3.4,0C1.5,0,0,1.5,0,3.4v169.4c0,1.9,1.5,3.4,3.4,3.4h261c1.9,0,3.4-1.5,3.4-3.4V3.4c0-1.9-1.5-3.4-3.4-3.4
	H3.4z"/>
<path class="st1" d="M114,83.3c0.3-0.1,0.5-0.2,0.8-0.4c-0.3-0.6-0.6-1.2-0.9-1.9c-0.2,0.1-0.4,0.2-0.5,0.2
	C113.6,82,113.8,82.6,114,83.3 M136.2,80.2c-2.4,0.4-2.4,0.4-2.7,3C134.5,82.2,135.2,81.3,136.2,80.2 M107.8,92
	c-1.3,0.3-2.5,0.6-3.8,1C105.8,94.5,106.9,93.9,107.8,92 M116.1,113.1c-1.7,1.9-0.5,3.8,0,5.7V113.1z M112.5,125.7
	c-0.6-3.2-1-5.9-1.6-9C110.2,121.7,110.2,121.7,112.5,125.7 M134.3,88.3c1.9-1.5,3.7-2.9,5.9-4.6C136.2,82.9,135.9,86.6,134.3,88.3
	 M146.6,103.8c-3.1-2-4.4-1.8-6.8,0.4C141.8,104.1,143.9,104,146.6,103.8 M99.1,136.6c2.5-2.3,2.1-5,1.6-7.5
	c-0.6-3.1-0.6-6.2,0.2-9.3c0.2-0.7,0.3-1.4,0.4-2.1c-2,2.6-2.2,5.5-2.2,8.6C99.1,129.6,99.1,132.9,99.1,136.6 M123,89.4
	c-0.9-0.6-1.9-1.4-3-2.1c-0.5-0.3-1-0.5-1.5-0.8c-2.7-1.3-4.6,0.6-6.6,1.7c-0.8,3.3,0.4,6.2,1.4,9.2c1-0.1,1.9-0.1,2.7-0.3
	c3.1-0.7,5.7-0.3,7.5,2.7c0.7,1.2,1.7,2.1,2.6,3.2c1.2-1.2,2.1-2.6,1.1-4c-1.2-1.7-1.5-3.7-2.2-5.6C124.6,91.9,123.7,90.7,123,89.4
	 M138.6,96.2c2.2-0.5,4.2-2,6.7-1.4c1.7,0.4,2.8,1.1,2.1,3.2c-1.6,0.1-3.2,0.2-4.7,0.2c0,0.1,0,0.2,0,0.3c1.2,0.3,2.4,0.5,3.5,1
	c2.7,1.1,3.2,2.7,2.3,5.6c-0.2,0.7,0.3,1.6,0.2,2.3c-0.1,0.8-0.3,1.9-0.9,2.3c-1,0.6-1.6-0.4-2-1.3c-0.2-0.4-0.5-0.8-0.8-1.3
	c-4.5,0.4-9,0.8-13.4,1.2c1.7,1,3.6,1,5.6,0.6c1.8-0.3,3.7-0.4,5.5-0.2c2.6,0.3,4.2,2.2,4.2,4.4c0,1.1-0.2,2.2-1.5,2.3
	c-1.2,0.1-1.5-0.8-1.6-1.8c0-0.4-0.3-0.8-0.5-1.4h-12.6c1.2,1.3,2.7,1,4.1,1c5.4,0,7.5,0.9,10.9,4.9c0.9-0.2,1.8-0.4,2.7-0.5
	c0.2,0.2,0.4,0.4,0.6,0.7c1.1,2.1,3.2,2.7,5.2,3.1c4.5,1,9.1,1.8,13.7,2.5c8.8,1.2,17.4,3,24.9,8.2c1.9,1.3,3.7,2.8,5.2,4.6
	c2.2,2.4,1.4,7.8-1.1,9.8c-1,0.8-1.9,0.8-2.8-0.2c-0.8-1-1.7-1.9-2.4-3c-3.2-4.3-7.5-6.5-12.6-7.3c-3.3-0.6-6.7-1-9.9-1.8
	c-9.1-2.1-17-6.2-23.1-13.7c-0.7,1-1.1,1.9-1.8,2.7c-0.3,0.3-1.1,0.4-1.6,0.2c-0.4-0.2-0.8-0.9-0.8-1.4c-0.1-1.2,0.4-2.9-0.2-3.5
	c-1.1-1-2.8-1.6-4.4-1.8c-1.8-0.3-3.6-0.1-5.9-0.1c1.3,1.6,2.9,1.9,4.3,2.8c1.7,1,3.3,2.1,4.7,3.5c1.3,1.3,1.6,3,1.2,4.9
	c-0.3,1.3-1.2,2.1-2.5,1.8c-1.4-0.4-1.1-1.4-0.8-2.5c0.2-0.7-0.1-1.7-0.5-2.4c-0.3-0.6-1-1-1.6-1.3c-3.4-2-6.8-3.9-10.6-6.1
	c1,1.4,1.7,2.5,2.6,3.5c1.6,1.8,3.5,3.4,5,5.4c1.3,1.7,2.4,3.7,3.2,5.7c0.7,1.7-0.1,3.3-1.7,4.2c-0.7,0.4-1.9,0.8-2.5,0.5
	c-0.5-0.2-0.7-1.5-0.7-2.3c0.1-3-0.9-5.6-3-7.5c-4.4-3.9-7-8.6-8.1-14.9c-1.2,4.8-0.1,8.4,2.3,11.7c1.2,1.7,2.5,3.4,4.1,4.7
	c3.2,2.8,3.4,6.5,3.3,10.2c0,2.7-3.1,4-6.6,2.7c0.1-1.1,0.3-2.2,0.4-3.3c-0.2,0-0.3-0.1-0.5-0.1c-0.3,0.7-0.5,1.4-0.8,2.2
	c-0.8,1.9-2,3.1-4.1,3.2c-2.3,0.2-3.3-0.8-2.8-3.1c0.8-3.3,0.3-6.5-0.8-9.6c-0.2-0.5-0.6-0.9-0.9-1.5v14c-1.9,0.3-3.6,0.9-5.2,0.8
	c-2.3-0.2-3-1.9-1.6-3.6c1.5-1.9,2-3.8,1.4-6.1c-1.6-5.5-2.5-11.1-2-16.8c-1.7,2.1-1.9,4.6-1.7,7.1c0.3,2.6,0.8,5.3,1.4,7.9
	c0.6,2.7,0.2,5.1-1,7.7c-1.6,3.4-5.9,3.8-8.1-0.4c-2,1.5-4,0.5-5.9-0.2c-2-0.7-2.3-2-1.2-3.8c0.6-1,1.2-1.9,1.8-2.9
	c0.5-0.6,1.1-1.1,1.4-1.8c1.4-3.5,1.9-7,1-10.7c0.2-0.1,0.6-0.1,0.6-0.2c1.6-3.1,3.2-6.3,4.8-9.4c-1.4,1-2.4,2.3-3,3.7
	c-0.9,1.9-1.6,4-2.4,6c-0.8,4.2-1.5,8.4-2.3,12.5c-0.9,0.7-1.7,1.5-2.7,2.1c-3.3,2.2-3.9,1.5-6.6-0.2c-1.8-1.1-1.9-3-0.2-4
	c3.8-2.2,4.8-5.9,6.1-9.7c1.1-3.4,3.1-6.5,4.7-9.6c0.4-0.9,1.1-1.6,1.4-2.6c-3.1,2.1-4.8,5.2-6,8.6c-1.1,2.9-2.1,5.9-3.4,8.7
	c-0.7,1.4-2,2.6-3.2,3.5c-1.7,1.2-3.3,1.1-4.5,0c-1.8-1.7-2-3.1-0.9-5.2c0.2-0.3,0.3-0.6,0.5-0.9c3.9-0.5,4.9-3.8,6.5-6.5
	c1.8-3,3.7-5.8,5.6-8.7c0.4-0.6,1-1.1,1.5-1.6c-3.7,1.8-6.3,4.6-7.8,8.4c-1.3,3.3-3.2,6.2-5.8,8.6c-3,0.9-5.7,0.7-7.6-2.2
	c-1.6-2.3-1.2-3.9,1.6-4.1c4-0.3,6.1-2.5,8-5.7c1.4-2.3,3.6-4.2,5.6-6.1c1.1-1.1,2.5-2,3.6-3.1c-3.1,0.5-5.4,2.4-7.5,4.5
	c-1.9,1.9-3.6,3.9-5.5,5.8c-2,2-4.5,2.9-7.2,3.2c-2.4,0.3-3.8-1-4.1-3.3c-0.2-1.7,0.9-3.4,3-3.6c3.8-0.4,6.5-2.4,8.9-5
	c3.6-3.9,8.3-5.4,13.2-6.6c1.4-0.3,2.8-0.6,4.2-1.2c-5.3-1.3-10.1-0.1-14.4,2.9c-1.3,0.9-2.6,2-3.7,3.1c-2.8,2.9-6.3,3.8-10.2,3.6
	c-3.5-0.2-5.2-2.5-4.5-5.9c0.3-1.4,1.1-2.4,2.7-1.9c4.6,1.6,8.6,0.1,12.6-2.2C79.6,93,84,90.9,89.1,91c-3.9-1.2-7.6-0.6-11.2,0.6
	c-2.6,0.9-5.2,2.1-7.9,2.7c-2.1,0.5-4.4,0.6-6.5,0.3c-2.6-0.3-4-2.4-3.7-4.7c0.3-2,1.5-2.9,3.4-2.1c4.1,1.8,7.9,1.3,12-0.5
	c5.4-2.4,11.3-2.5,16.9,0c1.7,0.8,3.9,1.6,2.6,4.3c1.1,1.5,0.5,3.3,1,4.7c0.6,1.8,2.6,3.3,4,4.8c1.4,1.5,3,2.9,4,4.9
	c0.5,0.9,2.1,1.3,3.1,1.9c-0.3,0.3-0.5,0.6-0.8,0.9c0.7-0.3,1.5-0.5,2.4-0.9c1.4,1.7,2.9,2.9,5.1,1c0.4-0.4,1.3-0.4,1.9-0.2
	c2.5,0.7,4.4,0,6-2.4c0.8,1,1.4,1.8,2,2.7c2.5-0.9,0.8-3.1,1.3-4.6c-0.9-0.5-1.7-0.9-2.5-1.3c-0.1,0.2-0.2,0.3-0.3,0.5
	c-0.3,0.7-0.6,1.3-0.9,2c-0.7-0.5-1.5-0.8-2-1.5c-0.5-0.7-0.7-1.6-1-2.6c-0.4,0.5-0.6,0.7-0.8,1c-0.5,0.8-0.9,2.2-1.6,2.4
	c-1.1,0.4-2.6,0.4-3.7,0c-1.8-0.6-0.7-2,0-3.6c-0.9,0.6-1.4,0.9-1.8,1.2c-0.5,0.3-0.8,0.9-1.3,1.1c-0.6,0.2-1.3,0.1-1.9,0.1
	c0.4-2.5-3.5-2.5-2.8-5c0.1-0.4,1.1-0.6,1.7-0.8c0.7-0.2,1.5-0.3,2.2-0.5c-1.7-0.3-3.5-0.5-5.1-0.9c-1.2-0.4-2.2-1.1-2.3-2.7
	c0-0.6-0.9-1.2-1.2-1.9c-0.2-0.6-0.4-1.4-0.2-1.9c0.2-0.4,1.2-0.8,1.7-0.6c2.2,0.8,3.9-0.5,5.9-0.7c0-0.3-0.1-0.6-0.1-0.8
	c-1.3,0.1-2.6,0.4-3.9,0.4c-2.7,0-3.6-1.4-2.3-4.1c0.6,0.2,1.2,0.5,1.8,0.6c0.7,0.1,1.3,0,2,0c-1-1.5-2-2.8-2.6-4.3
	c-0.2-0.5,0.7-1.5,1.3-2.6c1,1.2,1.5,2.2,2.3,2.5c0.9,0.4,2,0.2,3.2,0.3c-1.2-1.6-2.2-3-3.1-4.5c-0.1-0.2,0.7-1,1.1-1.6
	c1.2,0.8,2.2,1.5,3.4,2.3c0.3-1.9,0.5-3.7,2.4-4.5c2.8,0.5-0.1,4.1,2.8,4.6c-0.3-2.2,0-4.2,2.4-5.2c2.2,0.4,1.4,2.1,1.2,3.6
	c1.1-1.2,2-2.2,2.8-3.2c1.4,0.1,2.3,1.6,3.7,0.7c0.3-0.2,1.3,0.9,2.3,1.6c0.2-0.1,0.7-0.3,1.1-0.6c0.9-0.6,1.7-0.8,2.4,0.3
	c0.6,1,0.1,1.7-0.6,2.4c-3.1,3.2-3.3,4.3-1,8.3c0.3-1.3,0.5-2.5,0.9-3.5c0.7-1.5,1.3-3,2.4-4.1c1.8-1.8,4.2-1.4,5.6,0.8
	c0.2,0.4,0.4,1.2,0.5,1.2c3.3-0.2,3.7,3.3,5.8,4.7c0.7,0.5,1.4,1.8,1.2,2.5c-0.3,1.4-1.5,1-2.5,0.5c-1.4-0.7-2.6,0-3.5,0.9
	c-2.4,2.1-4.6,4.4-6.8,6.7c0.1,0.2,0.3,0.4,0.4,0.6c2.1-1.5,4.1-3.1,6.3-4.6c1-0.7,2.1-1.4,3.3-1.8c1.7-0.6,3.3,0.2,4,1.8
	c0.2,0.6,0.2,1.5-0.1,1.9c-0.3,0.3-1.2,0.2-1.8,0.1c-0.4-0.1-0.8-0.4-1.5-0.9c-1.6,1.4-3.2,2.8-4.9,4.2c-0.7,0.5-1.4,1-2.1,1.4
	c0.3,0.4,0.6,0.7,1,1.1L138.6,96.2z"/>
<path class="st1" d="M152.2,89.1c5.3-2.9,9.3-6.8,11.5-12.5c1.3-3.5,2.6-7,4.2-10.3c1.5-3.1,3.3-6.1,5.1-9.1
	c1.6-2.6,4.4-3.8,7.1-4.9c2.4-0.9,6.7,2.3,6.7,5c0,2-1.5,2.3-2.8,2.4c-5.3,0.5-8.5,3.9-11,8.2c-0.9,1.5-1.6,3.1-2.2,4.7
	c-2.5,7.1-6.8,12.9-12.7,17.6c-0.2,0.2-0.4,0.5-0.9,1.3c1.1-0.5,1.7-0.6,2.2-1c6.2-4.2,11-9.6,14-16.6c1.9-4.6,4.2-8.9,8.9-11.2
	c2.3-1.1,4.8-1.8,7.5-2.8c0.9,1.1,2,2.3,2.9,3.6c2.2,3.3,1.6,4.9-2.2,6.1c-0.3,0.1-0.7,0.1-1,0.2c-5.7,1.1-10.3,3.8-13.3,9.1
	c-2.9,5-6.9,9.4-11.7,12.8c-2.1,1.5-4.5,2.7-6.5,4.6c1.5-0.7,3.1-1.2,4.6-2c5.5-3,9.8-7.3,13.6-12.3c2-2.6,4.3-4.8,6.6-7.1
	c2-2,4.4-3.2,7.4-3.6c1.9-0.2,3.8-1.1,6.2-1.9c1.4,1.6,3.3,3.2,4.5,5.2c1.7,3,0.4,5-3,5.1c-2.8,0.1-5.6,0.1-8.4,0.2
	c-2.4,0.1-4.5,1.1-6.2,2.8c-3.3,3.3-6.6,6.5-10,9.7c-5.1,4.7-10.9,7.8-18,8.3c-1,0.1-2.2,0.1-3-0.3c-0.6-0.3-0.4-2-0.9-2.2
	c-2.5-1-0.5-3.9-2.3-5.1c-0.2-0.1,0.1-1.6,0.5-2.1c0.7-0.8,1.8-1.4,2.7-2.1C152.3,89,152.2,89.1,152.2,89.1"/>
<path class="st1" d="M169.4,103.7c0.2,0,0.8-0.1,1.4-0.3c2.7-1.3,5.5-2.6,8.1-4c5.5-3,10.4-7,16.8-8.1c2.2-0.4,4.5-0.6,7.3-1
	c-4-1.4-7.5-0.7-11.1-0.6c-3.7,0.1-6.7,1.5-9.5,3.8C178,96.9,173.6,100.4,169.4,103.7 M156.7,106.3c-1.4-0.6-2.5-0.9-3.4-1.5
	c-0.4-0.3-0.6-1.3-0.4-1.8c0.2-0.5,1.1-1.2,1.5-1.1c5.5,1,10-1.4,14.3-4.3c4.9-3.3,9.6-6.9,14.4-10.4c4-2.9,8-5.5,13.3-5.2
	c0.8,0,1.8,0,2.4-0.4c2.6-1.8,4.7-0.2,6.7,1.1c2.2,1.4,1.4,4,1.9,6.1c0.2,0.8-0.9,1.9-1.5,3c3,1.4,3.5,4.4,3.1,7.6
	c-0.3,3-0.5,6-1.1,9c-0.6,2.8-2,3.3-4.6,2c-7.5-3.9-15.4-5-23.7-3.5c-3.8,0.7-7.5,1.4-11.3,1.8c-3.1,0.3-6.2,0.4-9.3,0.3
	C157.1,109.1,156.8,108.7,156.7,106.3"/>
<path class="st1" d="M174.9,116.2c-6.9,0.4-13.7,0-20.3-2.1c-1.2-0.4-2.5-0.7-3.6-1.3c-0.6-0.4-1.2-1.5-1.1-2.1c0.1-1,1.1-1.3,2.2-1
	c6.6,1.8,13.3,1.4,20.1,1c3.6-0.2,7.2-0.8,10.7-1c7.1-0.4,13.9,0.6,20.2,4c3.7,2,4.4,4.2,3,8.1c-0.8,2.2-2.1,2.8-4.4,1.8
	c-1.1-0.5-2.3-1.2-3.3-2c-5.5-3.9-11.6-5.6-18.3-5.4C178.4,116.3,176.7,116.2,174.9,116.2"/>
<path class="st1" d="M148.8,118.5c-0.2-0.2-0.4-0.4-0.6-0.7c-1-1.5-0.6-2.8,0.7-4.2c8.4,4,17.6,4.2,26.7,4.8
	c8.7,0.6,17.1,1.8,24.7,6.5c3.4,2.1,4.6,4.3,3.7,7.7c-0.7,2.8-2,3.3-4,1.3c-2.7-2.7-5.4-5.6-9.2-6.7c-4.5-1.2-9-2.4-13.5-3.1
	c-6.5-0.9-13.2-0.7-19.6-2.7C154.7,120.4,151.8,119.4,148.8,118.5"/>
<path class="st1" d="M115.6,32.4c-0.1,0.3-0.1,0.9-0.3,1.5c-1.5,4.7-0.4,8.9,2,13c2,3.4,3.8,7,4.1,11c0.2,3.6-0.1,7.1-0.2,10.7
	c0,0.6-0.3,1.4-0.7,1.9c-0.3,0.4-1,0.6-1.5,0.5c-0.5-0.1-0.9-0.7-1.1-1.1c-0.2-0.4-0.1-0.9,0-1.3c1.6-6-0.6-11-4-15.9
	c-2.4-3.4-4.5-7-6.3-10.8c-0.9-1.9-1.1-4.3-1-6.4c0.3-3.6,2.5-5.5,6.2-5.8C114.8,29.5,115.6,30.2,115.6,32.4"/>
<path class="st1" d="M168.9,43.7c-0.5,0.6-0.8,1.2-1.3,1.5c-0.7,0.5-1.5,0.7-2.2,1c-3.5,1.7-5.6,4.5-5.8,8.4
	c-0.4,8.6-3.4,16.3-7.5,23.7c-0.7,1.2-1.6,2.3-2.6,3.3c-0.9,0.9-2.1,1-3.2,0.2c-1.3-1-0.6-2.2,0.2-3c3.1-3.2,5.5-6.7,6.3-11.1
	c0.6-3.4,0.8-6.9,0.9-10.4c0.2-4.4,0.5-8.8,2.8-12.8c0.3-0.6,0.7-1.2,1.1-1.8c2.8-3.6,6.8-4,10.1-0.9
	C168.2,42.2,168.5,42.9,168.9,43.7"/>
<path class="st1" d="M152.2,89.1c0,0,0.1-0.1,0.1-0.1c-1-0.2-2-0.4-3.7-0.8c1-1.4,1.5-2.2,2.1-3c1.9-2.2,3.9-4.3,5.7-6.6
	c3.2-4.1,4.9-8.8,5.2-14.1c0.3-4.9,1.3-9.6,3.9-13.9c2.2-3.7,5.9-4.9,10.1-2.6c0.6,0.3,1.2,0.8,1.5,1.4c1.1,1.6,0.7,3.2-1.1,3.5
	c-5.5,1-7.9,5.1-8.9,9.6c-2.1,10-7.2,18.2-14.1,25.5C152.7,88.3,152.4,88.7,152.2,89.1"/>
<path class="st1" d="M157.5,38c-0.5,0.6-1,1.3-1.5,1.8c-1.1,1.2-2.4,2.2-3.4,3.4c-1.8,2.1-2.5,4.7-2.4,7.4c0.1,2.2,0.3,4.4,0.4,6.6
	c0.2,6.1-1.1,11.8-3.8,17.2c-0.7,1.4-1.8,2.7-2.9,3.9c-0.8,0.9-1.9,1.4-3,0.4c-1-1-0.5-1.9,0.2-2.8c4.7-5.5,5.5-11.8,4.5-18.7
	c-0.5-3.3-0.7-6.7-0.7-10.1c0-3.8,1.2-7.3,3.6-10.4c1.6-2.1,5.7-2.5,7.8-0.7C156.7,36.6,157,37.3,157.5,38"/>
<path class="st1" d="M105.1,35.4c-0.1,0.3-0.1,0.8-0.2,1.2c-1.2,3.8,0,7.1,1.9,10.3c1.4,2.3,2.9,4.5,4.5,6.6c3.2,4.4,5,9.2,4.1,14.7
	c-0.1,0.7-0.1,1.4-0.4,2c-0.2,0.4-0.9,1-1.3,0.9c-0.6-0.1-1.3-0.6-1.5-1.1c-0.3-0.6-0.2-1.4-0.1-2c0.4-3.5-0.9-6.4-3.1-9
	c-1.5-1.8-3.2-3.4-4.9-5c-3.1-2.9-5.7-6.2-6.5-10.5c-0.4-2.2-0.1-4.6,0.3-6.8c0.3-2,2.1-3,3.8-3.8C103.8,32,105.1,32.9,105.1,35.4"
	/>
<path class="st1" d="M133.2,29c1,0.6,2.3,1,3,1.9c0.9,1.1,0.2,2.4-0.6,3.5c-2.6,3.4-2.9,7.2-2.2,11.3c0.2,1.1,0.4,2.3,0.8,3.4
	c2.2,6.6,0.8,12.9-1.4,19.1c-0.4,1.1-1,2.2-1.9,2.9c-0.5,0.4-1.8,0.5-2.5,0.2c-0.4-0.2-0.4-1.4-0.5-2.1c0-0.3,0.2-0.6,0.4-0.9
	c3.3-6.2,2.7-12.5,0.6-18.9c-0.9-2.6-1.4-5.4-2.1-8.1c-0.9-3.3,0.1-6.2,1.5-9.1C129.5,30.1,130.9,29.2,133.2,29"/>
<path class="st1" d="M143.5,31.9c0.4,0.1,1.3,0.1,2,0.5c1.5,0.7,1.8,2.1,0.8,3.4c-0.4,0.5-1,1-1.5,1.5c-3.4,3.3-4.4,7.2-3.3,11.8
	c0.4,1.7,0.9,3.4,1.2,5.1c1,6.5-1,12.4-3.7,18.2c-0.4,0.9-1.2,1.8-2.1,2.2c-0.6,0.3-1.8,0.3-2.4-0.1c-0.4-0.2-0.3-1.4-0.2-2.1
	c0-0.4,0.4-0.8,0.7-1.2c3.6-5.4,3.8-11.3,2.7-17.4c-0.4-2.2-1.1-4.3-1.4-6.5c-0.7-4.7,0.3-9,3.1-12.9
	C140,32.9,141.2,31.8,143.5,31.9"/>
<path class="st1" d="M122.6,29.1c3.2,0.1,4.6,2,3.3,4.4c-2.1,3.8-1.8,7.6-0.8,11.5c0.8,3.1,1.7,6.3,2.3,9.5c1,4.5-0.1,8.8-1.2,13.1
	c-0.1,0.6-0.3,1.3-0.7,1.6c-0.6,0.4-1.4,0.7-2.1,0.6c-0.4-0.1-0.6-1-0.9-1.6c0-0.1,0-0.2,0.1-0.3c2.5-8-0.2-15.3-3.2-22.6
	c-0.8-2-1.7-4.1-2.3-6.2c-0.7-2.5-0.1-4.8,1.1-7.1C119.4,30,120.8,28.8,122.6,29.1"/>
<path class="st1" d="M72.2,58.6c-1.6-3.3,0.3-5.5,2.5-7.5c1.2-1.1,2.1-1,3.2,0.3c0.1,0.1,0.2,0.2,0.2,0.3c1.9,5.2,6.5,6.9,11.2,8.4
	c0.8,0.4,1.6,0.8,2.4,1.2c3.1,3.5,6.1,7,9.2,10.6l-0.1-0.1c-0.6,2.4-1.4,2.8-2.9,1.4c-1.5-1.4-2.5-3.3-4.9-3.5
	c-1.6-0.6-3.1-1.1-4.7-1.7c-2.1-1-4-2.3-6.2-2.9c-3.7-1-6.7-3.1-9.3-5.8C72.7,59,72.5,58.8,72.2,58.6"/>
<path class="st1" d="M95.3,57.1c-1-1.1-1.9-2.3-2.9-3.3c-1.9-2-3.8-4.1-4.5-6.9c-0.3-1.3-0.5-2.7-0.4-4.1c0.2-2.5,1.5-3.4,4.6-3.8
	c1.6-0.2,3,1,3.7,3c0.1,0.3,0.2,0.7,0.2,1c0,5.7,2.9,9.7,7.4,13c4.2,3.1,6.8,7.3,6.7,12.7c0,0.6,0.1,1.2-0.1,1.7
	c-0.2,0.5-0.7,1.1-1.1,1.1c-0.6,0-1.5-0.3-1.7-0.7c-0.4-1-0.6-2.2-0.7-3.3c-0.2-2.8-1.4-4.8-3.8-6.2c-2.5-1.4-4.9-2.9-7.4-4.4
	L95.3,57.1"/>
<path class="st1" d="M91.7,61.3c-0.8-0.4-1.6-0.8-2.4-1.2c-1.3-1-2.6-1.9-3.8-2.9c-1.6-1.4-3.3-2.6-4.6-4.2
	c-2.9-3.5-2.6-6.8,0.9-9.7c0.5-0.4,1.1-0.8,1.8-1.2c1.9,1,3,2.2,3.3,4.5c0.7,5.2,3.8,8.5,8.4,10.6c0,0-0.1-0.1-0.1-0.1
	c1.3,1.3,2.6,2.5,3.9,3.8c2.7,2.5,4.5,5.5,5.5,9c0.1,0.6,0.5,1.2,0.3,1.7c-0.2,0.8-0.6,1.6-1,2.4c-0.8-0.4-1.5-0.7-2.2-1.1
	c-0.4-0.2-0.6-0.6-0.9-0.9l0.1,0.1C100,66.4,96.7,63.1,91.7,61.3"/>
<path class="st1" d="M72.2,58.6c0.2,0.2,0.4,0.4,0.6,0.6c1,4.9,4.7,6.7,9.1,7.6c2.1,0.4,4.3,0.7,6.4,1.1c1.6,0.6,3.1,1.1,4.7,1.7
	c1.6,1.7,3.3,3.4,4.9,5.2c0.6,0.7,1.3,1.4,1.6,2.2c0.3,0.7,0.4,1.9,0,2.4c-0.7,0.9-1.6,0.3-2.3-0.4c-0.2-0.3-0.5-0.5-0.7-0.7
	l0.1,0.1c-2.5-4.4-6.6-5.3-11.2-5.7c-3.4-0.3-6.9-0.7-10.2-1.6c-3.6-0.9-6.4-3.1-8.3-6.3c-0.9-1.5-1.5-3.2,0.1-4.4
	C68.4,59.1,69.8,56.8,72.2,58.6"/>
<path class="st1" d="M96.6,78.3c0,0-0.1-0.1-0.1-0.1c0,0.6,0.1,1.2,0,1.7c-0.1,1.4-1,1.7-2.2,1.3c-0.7-0.2-1.2-0.6-1.9-0.9
	c-4.2-2.1-8.8-1.8-13.3-1.8c-2.2,0-4.4,0.2-6.6,0.1c-3.1-0.1-5.9-1.3-8.2-3.3c-2.8-2.4-2.8-5.2,0.1-8c0.3,0.1,0.7,0.1,0.9,0.3
	c2.7,3.5,6.4,4.8,10.6,5c2.3,0.1,4.6,0.1,6.9,0.3c3.8,0.3,7.2,1.6,10.4,3.5C94.4,77.1,95.5,77.7,96.6,78.3"/>
<path class="st1" d="M96.3,86.6c-1.7-0.1-2.7,0.1-3.4-0.3c-6.5-2.9-13.1-2.2-19.8-1c-1.6,0.3-3.2,0.7-4.8,0.7
	c-1.6,0.1-3.3,0-4.8-0.5c-4.4-1.4-5.1-4.6-1.8-8.3c0.5,0.3,1.1,0.6,1.6,1c2.3,1.9,4.9,2.4,7.8,2.2c4.7-0.4,9.4-0.9,14.2-1
	c3.8-0.1,6.7,2.3,9.7,4.3C95.5,84.1,95.6,85.1,96.3,86.6"/>
</svg>
