<?xml version="1.0" encoding="utf-8"?>
<!-- Generator: Adobe Illustrator 24.3.0, SVG Export Plug-In . SVG Version: 6.00 Build 0)  -->
<svg version="1.1" id="Layer_1" xmlns="http://www.w3.org/2000/svg" xmlns:xlink="http://www.w3.org/1999/xlink" x="0px" y="0px"
	 viewBox="0 0 267.7 176.1" style="enable-background:new 0 0 267.7 176.1;" xml:space="preserve">
<style type="text/css">
	.st0{fill:#A1A28C;}
	.st1{fill:#FFFFFF;}
</style>
<path class="st0" d="M3.4,0C1.5,0,0,1.5,0,3.4v169.4c0,1.9,1.5,3.4,3.4,3.4h261c1.9,0,3.4-1.5,3.4-3.4V3.4c0-1.9-1.5-3.4-3.4-3.4
	H3.4z"/>
<path class="st1" d="M101,106.1c1.1,1.2,2,2.2,2.9,3.2c1.9,2.3,3.9,4.5,7,5.3c2.8,0.7,5.3,0.5,7.2-1.8c1.3-1.6,2.8-2.1,4.8-2
	c0.9,0.1,1.8-0.2,2.7-0.3c3.2-0.1,5.8-1.3,7.2-4.5c0.3-0.7,1-1.2,1.5-1.8c5.6,1.1,5.8,1.5,3.1,6.4c-0.8,1.4-1.5,3-2.1,4.5
	c2.6-2.9,4.2-6.5,7-9c2.4,0.7,1.5,2.6,2,4.4c0.3-6.1,0.8-4.9-4.2-7.3c-3.1-1.5-6.3-2.8-9.2-4.7c-4.3-2.7-5-7.2-4.8-11.9
	c0.1-2.5,2-3.8,4.7-3.1c6.6,1.7,13.1,3.7,19.6,5.6c2.3,0.7,4.6,1.6,6.8,2.5c2.6,1,4.1,3.1,5.2,5.7c2.4,5.4,2.7,11.1,2.5,16.9
	c-0.3,6.9-1.9,13.4-5.8,19.3c-0.8,1.2-1.1,2.8-1.3,4.2c-0.2,2.4-0.4,4.8-0.2,7.2c0.2,2.5-1,4.1-2.7,5.6c-0.5,0.4-1.2,0.8-1.3,1.4
	c-0.6,2.3-2,1.8-3.6,0.9c-0.3,0.6-0.5,1.4-1,1.7c-0.6,0.3-1.8,0.6-2,0.3c-2.4-3.3-5.8-1.8-8.9-2c-2.3-0.2-4.8,1.1-7-0.6
	c-0.2-0.2-0.9-0.1-1.2,0.2c-1.1,0.9-1.8,0.6-3,0.1c-1.8-0.7-3.8-0.8-5.8-0.9c-1.8,0-2.7-0.8-3.2-2.4c-0.3-0.9-0.7-1.7-1-2.6
	c-1.1-3.3-2.3-6.4-5.5-8.3c-1.3-0.8-2.2-2.3-3.1-3.7c-4.7-6.9-7.9-14.3-8.7-22.6C99.4,110.2,98.7,108.1,101,106.1"/>
<path class="st1" d="M144.1,75.4c2.3-3.4,3-6.8,3.7-10.2c2.4-10.4,4.7-20.9,7.2-31.3c0.4-1.9,1.3-3.7,2.1-5.4
	c1.3-2.5,3.6-3.5,6.3-3.3c2.8,0.3,4.8,1.8,5.3,4.7c0.4,2.7,0.7,5.5,0.3,8.2c-1.9,14.5-4,28.9-6,43.4c-0.3,2-0.3,4.1-0.6,6.2
	c-0.4,3-1.3,3.4-4.1,2.6c-9.6-3-19.3-6.1-29-9c-1.8-0.5-2.3-1.7-2.5-3.2c-0.6-4-1.2-8-1.9-11.9c-1.8-8.9-3.8-17.8-5.5-26.7
	c-0.8-4.1-1.6-8.1-0.5-12.3c1-3.8,4.3-6.1,8-5.1c1.1,0.3,2.1,1.4,2.8,2.3c3,4.2,4.3,9.1,5.3,14.1c2.1,10.1,4.2,20.3,6.4,30.4
	C141.7,70.9,142.2,73.2,144.1,75.4"/>
<path class="st1" d="M124.7,109c-2.3-0.5-4.1-1-5.2-2.9c-1-1.8-2.3-3.5-2.9-5.4c-2.4-7.4-4.8-14.8-7-22.3c-1.1-3.7,0.6-6.2,4.2-7.3
	c1.4-0.4,2.8-1.1,4.2-1.6c2.2-0.8,3.5-0.5,4.2,1.6c1.3,3.6,2.3,7.2,3.2,10.9c0.3,1.1,0,2.6-0.6,3.7c-1.4,2.8-1.1,5.6,0,8.3
	c0.8,2,1.7,4,2.9,5.8c0.8,1.2,2.1,2,3.3,2.9c1.3,1,1.6,2.3,0.3,3.1C129.3,106.9,127,107.9,124.7,109"/>
<path class="st1" d="M98.3,89.2c0.1-7.2,1.2-8.9,6.1-11.3c2-0.9,2.9-0.5,3.3,1.5c1.9,9.2,5.8,17.7,9.4,26.3c0.7,1.6,2,3.3,0.6,4.8
	c-1.8,1.8-4.3,2.8-6.9,2.2c-1.6-0.4-3.2-1.4-4.4-2.6c-3.2-3.1-5.5-6.8-6.3-11.3C99.4,95.2,98.7,91.4,98.3,89.2"/>
</svg>
