<?xml version="1.0" encoding="utf-8"?>
<!-- Generator: Adobe Illustrator 24.3.0, SVG Export Plug-In . SVG Version: 6.00 Build 0)  -->
<svg version="1.1" id="Layer_1" xmlns="http://www.w3.org/2000/svg" xmlns:xlink="http://www.w3.org/1999/xlink" x="0px" y="0px"
	 viewBox="0 0 267.7 176.1" style="enable-background:new 0 0 267.7 176.1;" xml:space="preserve">
<style type="text/css">
	.st0{fill:#6C9187;}
	.st1{fill:#FFFFFF;}
</style>
<path class="st0" d="M3.4,0C1.5,0,0,1.5,0,3.4v169.4c0,1.9,1.5,3.4,3.4,3.4h261c1.9,0,3.4-1.5,3.4-3.4V3.4c0-1.9-1.5-3.4-3.4-3.4
	H3.4z"/>
<path class="st1" d="M159.1,117.2c0.2-0.1,0.5-0.1,0.7-0.2c0.1-1.2,0.2-2.3,0.3-3.8c-1.1,0.1-1.9,0.2-3.2,0.3
	C157.7,115,158.4,116.1,159.1,117.2 M147.7,49.7c-2.3,1.4-2.5,3.3-2.7,5.1c-0.2,1.3,1.6,2.4,2.3,1.6c0.8-1.1,1.4-2.6,1.6-4.1
	C148.9,51.5,148.1,50.6,147.7,49.7 M182.4,95.1c-1.6,0.1-2,1.1-2.2,2.3c-0.3,2.2-0.9,4.2-2.8,5.7c-0.4,0.3-0.6,1.6-0.3,2
	c0.3,0.4,1.5,0.7,2.1,0.4c2-0.7,2.9-2.6,3.5-4.5C183.4,99.2,184.2,97,182.4,95.1 M165.8,92.7c-0.6,0-1.5-0.2-2.2,0.1
	c-0.7,0.2-1.5,0.8-1.6,1.4c-0.1,0.5,0.6,1.4,1.2,1.7c2.9,1.3,6-0.4,6.5-3.4c0.2-1.2,0.3-2.5,0.1-3.8c-0.1-0.9-0.7-1.7-1.1-2.7
	C165.4,87.5,167.2,90.6,165.8,92.7 M181.1,68.4c-0.3,0.8-1,1.7-0.9,2.5c0.4,3.1,0.9,6.1-0.4,9.2c-0.2,0.5,0.4,1.5,0.9,1.9
	c0.3,0.2,1.2-0.3,1.8-0.5c0.2-0.1,0.3-0.3,0.4-0.5c1.7-2.6,1.2-9.8-0.8-12.2C182.1,68.6,181.8,68.6,181.1,68.4 M134,84
	c0.8,2.5,1.6,5.1,2.7,7.7c0.2,0.5,1.6,1,2.3,0.8c1.2-0.4,0.7-1.4,0.4-2.3c-0.6-1.6-1.3-3.3-1.4-5c-0.1-1.5,0.4-3.2,0.9-4.7
	c0.4-1.2,0.2-2.3-0.9-2.6c-0.6-0.2-1.8,0.6-2.1,1.2C135.1,80.5,134.7,82.1,134,84 M167.3,43.7c1.6,0,2.2-1.1,1.4-2.6
	c-1.9-3.4-3.9-6.8-6-10.1c-0.5-0.8-1.5-1.5-2.3-2.1c-0.9-0.6-2-1-2.8,0.1c-0.8,1.1-0.2,1.7,0.7,2.6c1.8,1.7,3.5,3.7,5,5.7
	c1.1,1.5,1.7,3.3,2.6,4.9C166.2,42.9,166.9,43.4,167.3,43.7 M125.4,65c-2.9-4.1-2.5-6.5,1.5-9.1c1.1-0.7,2.3-1.1,3.3-1.9
	c1.4-1,2.9-2,4.1-3.1c1.3-1.2,2.3-2.6,3.5-4c0.1-1.3-0.2-3,0.3-4.4c0.6-2.2,2.7-2.9,4.8-3.6c2.3-0.7,2.6-1.6,1-3.5
	c-1.7-1.9-1.6-3.8-0.9-5.8c1-3.3,3.2-5.6,6.2-7.3c2.1-1.2,4.2-2.4,6.5-3.3c1-0.4,2.6-0.3,3.6,0.3c4.2,2.4,8.7,4.3,11.2,9
	c1,1.9,2.6,3.4,4.3,5.5c2-0.2,2.5,1.8,3.1,3.9c2.2,0.2,4.1,0.9,4,3.7c0,0.2,0,0.6,0.2,0.7c3.1,1.7,2.2,4.8,2.5,7.5
	c0.2,1.7,0.6,3.2,2.6,3.5c0.2,0,0.5,0.2,0.6,0.3c2.2,2.9,4.3,5.8,5.1,9.7c3.6,2.3,3.8,2.7,2.7,7.1c-0.4,1.7-0.5,3.1,0.9,4.4
	c1.8,1.7,1.4,3.9,0.9,5.9c-0.6,2.4-0.5,4.5,0.8,6.6c1.4,2.3,1.7,4.8,0.1,7.3c-0.6,1-0.6,1.9-0.1,2.9c0.5,0.9,0.8,1.9,1,3
	c0.7,4.5-0.8,6.9-5,8.8c-0.6,0.3-1.3,0.6-2.1,0.9c0,1.2,0.2,2.5-0.1,3.7c-0.2,0.9-0.6,2.1-1.2,2.7c-2,1.6-4.1,3.1-6.3,4.3
	c-1.4,0.8-3,0.3-4.1-1c-0.6-0.8-1.1-1.7-2-2.9c-0.4,0.9-0.8,1.5-0.8,2c0,1.6,0.3,3.2,0.4,4.8c0.1,1.9-1.1,3-2.7,3.6
	c-1.8,0.6-3.1,0.1-4.1-1.6c-0.7-1.2-1.6-2.2-2.5-3.4c-1.5,1.6-1.9,3.4-1.8,5.5c0.6,7.4,1.1,14.8,1.7,22.2c0.3,3.7,0,4-3.7,3.9
	c-1.3,0-2.6,0-3.8,0c-3,0.1-3.7-0.7-3.4-3.7c0.6-7.4,1.2-14.8,1.6-22.2c0.3-4.8-0.4-6.3-4.5-10.4c-0.5,1.2-0.9,2.4-1.5,3.5
	c-1.1,2.1-2.1,2.4-4.2,1.3c-0.9-0.5-1.8-1.1-2.7-1.7c-0.7,0.5-1.3,1-1.9,1.5c-1.6,1.2-3.4,1.6-5.2,0.4c-1.1-0.7-2-0.9-3.2-0.4
	c-2.8,1.1-5-0.4-7-1.9c-0.6-0.4-1.1-1.5-1-2.1c0.6-2.4-1-3.6-2.4-4.9c-0.5-0.5-1.1-0.8-1.7-1.3c-2.2-2.1-3.2-4.4-1.4-7.1
	c0.3-0.5,0.6-1,0.9-1.7c-2.5-1.1-2.7-2.9-2.3-5.4c0.7-4.5,1.1-9,1.6-13.5c0-0.3,0-0.7,0.1-1c0.9-2.2,0.6-4.1-0.7-6.1
	c-1.4-2.3-0.9-4.7,0.2-7C123.5,68.3,124.4,66.7,125.4,65"/>
<path class="st1" d="M113,133.9c2.8,5.7,5.6,11.5,8.4,17.2c0.5,0.9,0.9,1.9,1.1,2.9c0.1,0.4-0.3,1.2-0.7,1.4c-0.4,0.2-1.2,0-1.5-0.3
	c-0.6-0.7-1-1.5-1.4-2.4c-3.4-7-6.8-14-10.2-21c-0.3-0.6-0.6-1.4-1.1-1.6c-3.3-1.5-6.7-3-10-4.4c-0.2,0.2-0.4,0.4-0.6,0.6
	c1.5,3.3,3,6.7,4.5,10c0.4,0.8,0.9,1.6,1.1,2.5c0.1,0.6-0.2,1.2-0.4,1.8c-0.7-0.2-1.4-0.3-2.1-0.6c-0.3-0.1-0.4-0.5-0.6-0.8
	c-1.9-4.1-3.8-8.2-5.6-12.4c-0.3-0.7-0.2-1.6-0.4-2.5c-1.8-0.5-3.6-1-5.9-1.6c0.4,1.3,0.5,2.1,0.8,2.9c1.9,4.8,3.8,9.5,5.6,14.3
	c0.4,1.1,1.6,2.6-0.1,3.3c-1.9,0.8-2.3-1.1-2.8-2.3c-2.2-5.4-4.4-10.7-6.4-16.2c-0.9-2.4-2.2-3.6-4.7-3.9c-1.6-0.2-3.1-0.6-5.4-1.1
	c1.2,3.1,2.3,5.6,3.3,8.1c0.3,0.9,0.8,1.7,0.9,2.6c0.1,0.4-0.3,1.2-0.7,1.4c-0.4,0.2-1.2,0-1.5-0.3c-0.6-0.7-1-1.6-1.4-2.4
	c-1.1-2.6-2.2-5.1-3.2-7.7c-0.6-1.6-1.5-2.5-3.3-2.4c-1.5,0.1-3,0-4.9,0c0.6,1.6,1,2.8,1.5,3.9c1.5,3.5,3.1,7,4.6,10.6
	c0.4,0.8,0.7,1.7,0.8,2.6c0.1,0.4-0.4,1.2-0.8,1.3c-0.4,0.2-1.2-0.1-1.5-0.4c-0.6-0.8-1.1-1.8-1.5-2.7c-2.1-4.9-4.3-9.8-6.5-14.9
	c-1.7,0.1-3.3,0.2-5.5,0.3c0.8,2,1.3,3.7,2,5.3c2.1,4.5,4.3,9,6.4,13.5c0.6,1.2,1.7,2.5,0.4,3.8c-0.8,0.8-1.9-0.1-3.1-2.5
	c-2.7-5.8-5.4-11.6-8.1-17.4c-0.3-0.7-0.8-1.4-1.2-2.3c-1.1,0.2-2.2,0.4-3.8,0.7c1.2,2.6,2.3,4.7,3.3,6.9c2.5,5.4,5.1,10.7,7.6,16.1
	c0.5,1.1,1.7,2.6,0.1,3.4c-1.8,0.9-2.3-1-2.8-2.2c-3.7-7.8-7.3-15.5-11.1-23.6c-1.4,0.2-2.7,0.4-4.4,0.7c0.6,1.5,1,2.7,1.4,3.9
	c2.9,6.7,5.9,13.4,8.8,20.1c0.5,1.1,1.7,2.5,0.1,3.4c-1.8,1-2.3-1-2.8-2.1c-3.1-7-6.2-14-9.2-21.1c-0.3-0.7-0.7-1.5-1.1-2.4
	c-0.9,0.3-1.7,0.8-2.6,0.9c-0.6,0.1-1.7-0.1-1.8-0.4c-0.2-0.7-0.1-1.8,0.3-2.1c2.2-1.3,4.4-2.9,6.8-3.3c6.1-1.2,12.4-1.9,18.6-2.9
	c10.7-1.6,20.8,1,30.9,3.9c12.8,3.7,24.6,9.1,35,17.5c4,3.2,8.3,6,12.4,9c0.9,0.7,1.8,1.5,2.4,2.4c0.3,0.5-0.1,1.4-0.2,2.2
	c-0.7-0.1-1.6-0.1-2.1-0.4c-6.8-5-13.6-10.1-20.5-15.1c-1.1-0.8-2.3-1.5-3.4-2.2C113.4,133.5,113.2,133.7,113,133.9"/>
<path class="st1" d="M187,138.1c1.6,2,3.1,3.9,4.7,5.9c0.6,0.7,1.2,1.4,1.6,2.2c0.2,0.4,0,1.2-0.3,1.5c-0.3,0.3-1.2,0.4-1.6,0.2
	c-0.8-0.5-1.4-1.2-2-1.9c-2.1-2.5-4.1-5-6.2-7.7c-0.9,0.2-1.8,0.5-2.7,0.5c-0.5,0-1.1-0.4-1.3-0.8c-0.2-0.4,0-1.3,0.3-1.5
	c0.8-0.6,1.7-1.2,2.7-1.4c12.4-2.8,24.9-4.8,37.7-3c3.8,0.5,7.4,1.8,11.1,2.8c1.1,0.3,1.9,1.1,1.6,2.3c-0.3,1.1-1.3,1.1-2.3,0.8
	c-0.7-0.2-1.5-0.2-2.7-0.3c1.9,2.9,3.6,5.4,5.2,7.9c0.6,0.9,1.2,1.8,1.5,2.7c0.2,0.5-0.2,1.2-0.3,1.8c-0.7-0.2-1.5-0.2-2.1-0.5
	c-0.5-0.2-0.7-0.9-1-1.4c-2.2-3.3-4.6-6.4-6.7-9.8c-1.5-2.4-3.5-3.5-6.8-3.1c0.6,1,1,1.8,1.5,2.6c3.2,5,6.5,9.9,9.6,15
	c0.7,1.1,2,2.3,0.6,3.7c-0.9,0.9-1.7,0.2-3.2-2.2c-3.4-5.3-6.9-10.5-10.2-15.8c-1.8-3.1-4.1-4.6-7.9-3.4c0.5,0.7,0.9,1.5,1.4,2.2
	c2.4,3.4,4.9,6.8,7.3,10.2c0.4,0.6,0.8,1.1,1.1,1.7c0.5,0.9,1,2.1-0.2,2.7c-0.5,0.2-1.7-0.5-2.2-1.1c-2.4-3.1-4.6-6.4-7-9.6
	c-1.2-1.6-2.4-3.1-3.6-4.7c-1.5-2-3.4-2.1-5.7-1c2,2.6,3.9,5.1,5.7,7.6c1.2,1.6,2.4,3.2,3.3,4.9c0.4,0.7,0.4,2.1,0,2.4
	c-1,0.9-1.9,0-2.5-0.9c-3-4-6-8-9-12c-1.1-1.5-2.4-2.1-4.5-0.9c1.6,2,3.2,3.9,4.8,5.9c1.1,1.3,2.3,2.6,3.3,4.1c0.3,0.4,0,1.3,0,1.9
	c-0.7,0-1.6,0.1-2.2-0.2c-0.6-0.3-1-1-1.4-1.5c-1.9-2.2-3.7-4.5-5.6-6.6c-1-1.1-2.1-2-3.1-3C187.5,137.6,187.3,137.8,187,138.1"/>
</svg>
