<?xml version="1.0" encoding="utf-8"?>
<!-- Generator: Adobe Illustrator 24.3.0, SVG Export Plug-In . SVG Version: 6.00 Build 0)  -->
<svg version="1.1" id="Layer_1" xmlns="http://www.w3.org/2000/svg" xmlns:xlink="http://www.w3.org/1999/xlink" x="0px" y="0px"
	 viewBox="0 0 267.7 176.1" style="enable-background:new 0 0 267.7 176.1;" xml:space="preserve">
<style type="text/css">
	.st0{fill:#234D72;}
	.st1{fill:#FFFFFF;}
</style>
<path class="st0" d="M3.4,0C1.5,0,0,1.5,0,3.4v169.4c0,1.9,1.5,3.4,3.4,3.4h261c1.9,0,3.4-1.5,3.4-3.4V3.4c0-1.9-1.5-3.4-3.4-3.4
	H3.4z"/>
<path class="st1" d="M176.5,81.2c-0.9-0.1-1.4-0.2-1.8-0.1c-2.2,0.2-4.5,0.5-6.9,0.8c2.4,1.2,4.8,1.7,8.2,1.6
	C176.1,82.8,176.2,82.2,176.5,81.2 M140.1,99.1c-2.3-3.1-6.2-3.3-10.8,0H140.1z M140.5,141.4c-3.4-0.5-10.1-0.1-12.4,0.8
	C131.7,144.8,136.5,144.5,140.5,141.4 M95.8,96c0.8-2,1.5-3.6,2.2-5.4c-4.4,0.9-6.1,1.9-8.8,5.1C91.5,95.8,93.5,95.9,95.8,96
	 M204.8,84.6c-0.1-0.3-0.2-0.7-0.3-1c-4.4,1.3-8.8,2.5-13.2,3.8c0,0.3,0,0.6-0.1,0.8c0.9,0.5,2,1.5,2.8,1.4
	C197.9,88.8,201.8,87.6,204.8,84.6 M110.9,83.2c0.9,2.7,1.8,5.1,2.7,7.8c1.7-0.9,3-1.6,4.5-2.3c-0.7-2.3-1.4-4.3-2.1-6.5
	C114.4,82.5,112.8,82.8,110.9,83.2 M202.5,73.7c0-0.3,0-0.7,0.1-1c-3.4-1.2-7-1.6-10.6-1.6c-0.5,0-1.1,0.4-1.4,0.8
	c-1,1.2-1.8,2.5-2.8,3.7l0.3,0.7C192.9,75.5,197.7,74.6,202.5,73.7 M169.8,86.5c1.7,2.3,3.2,4.4,4.7,6.5c2.1,3.1,2.2,3.2,6.6,2.3
	c-1.3-2-2.7-3.8-3.8-5.7C175.6,87,173.2,86.1,169.8,86.5 M121.4,132.1c2.4,2.4,5.2,3,14.2,2.6c6.8-0.2,11.1-1.2,12.8-3.2
	c-4.8,0.5-9.1,1.3-13.5,1.4C130.4,133,125.9,132.4,121.4,132.1 M174.9,77.8c2.8-0.2,4.9-0.3,6.9-0.6c0.8-0.1,1.7-0.7,2.2-1.3
	c1-1.3,1.7-2.9,2.9-4.9c-2.9,0.2-5.4,0.3-7.8,0.6c-0.6,0.1-1.3,0.6-1.6,1.1C176.6,74.1,175.9,75.6,174.9,77.8 M76.2,71.9
	c6,3.1,16.4,5.2,20.5,4.3c-1.7-1.4-2.4-3.7-5.1-3.7C86.5,72.4,81.4,72.1,76.2,71.9 M185,95.7c2.7-0.4,5.2-0.2,7.6-1.7
	c-3.2-4.5-7.7-5.2-13-6.4C181.7,90.8,183.3,93.2,185,95.7 M179.3,83.8c4.3,2.2,8.1,1.5,12.2-0.1c-0.8-1.5-1.4-2.8-2.2-4.3
	c-3.2,0.5-6.3,0.9-9.5,1.4C179.6,82,179.4,82.8,179.3,83.8 M78.1,87.3c1.7-0.7,2.7-1.2,3.8-1.6c2.7-1.2,5.5-2.3,8.2-3.6
	c0.4-0.2,0.9-0.8,1-1.2c0-0.4-0.4-1.2-0.8-1.3c-2.4-0.6-4.8-1.1-7.3-1.7C81.3,81,79.9,83.8,78.1,87.3 M207.5,76.1
	c-5.3,1-9.9,1.9-14.9,2.8c0.7,1.5,1.3,2.7,1.8,3.9c4.3-1,8.3-2,12.5-3C207.2,79,207.3,78,207.5,76.1 M99.8,95.4
	c4.2-0.1,7.5-1.7,11.1-3.1c-1-2.7-1.8-5-2.7-7.3C104.1,86.7,101.4,90,99.8,95.4 M116.4,75.3c-6-0.7-11.6-1.3-17.4-2
	c4.2,6.2,10.1,7.9,17.2,5.1C116.2,77.5,116.3,76.5,116.4,75.3 M174.2,71.9c-7.7,1.4-14.6,2.7-21.8,4.1c2.2,2.2,2.7,2.5,4,2.5
	c1.1,0,2.2,0.1,3.4,0.1c3.8-0.1,7.5-0.1,11.2-0.2C172.1,76.2,172.9,74.5,174.2,71.9 M150.7,119.7c-10.6,0.5-21,1.8-31.7,0.4
	c0.3,1,0.7,1.9,1.3,2.2c0.9,0.5,2,0.7,3,0.7c5.5,0.2,11,0.4,16.5,0.4c3.1,0,6.2-0.7,9.2-1C150.4,122.2,151.2,121.7,150.7,119.7
	 M119.3,109.5c10.6,2.5,21.1,1.1,31.9,0.5c-0.2-1.1-0.3-1.8-0.4-2.8c-10.6,0.9-21,1.1-31.5-0.4V109.5z M102.6,84.1
	c-7-1.6-19.7,3.8-25.6,8.4c2.2,1.6,4.8,2.1,7.4,2.5C89.3,89.4,96.3,87.3,102.6,84.1 M171.3,95.4c0.2-0.3,0.4-0.5,0.5-0.8
	c-1.3-1.8-2.8-3.6-4-5.5c-1.6-2.6-3.6-4.1-6.7-4.9c-2.8-0.7-5.5-2.1-8.3-3.2c-0.8,2.3-1.6,4.3-2.3,6.1c3.5,1.7,6.9,3.6,10.5,5
	C164.4,93.5,167.9,94.3,171.3,95.4 M79.8,77.1c-4-1.1-7.6-1.8-10.8-3.2c-3.4-1.5-5.9-0.2-8.3,1.5c2.4,6.9,7.4,9.9,14.4,10.7
	C76.6,83.2,78.1,80.3,79.8,77.1 M131.2,44.2c1.9,0,4-0.2,6.1,0.1c1.9,0.2,3.2-0.4,4.1-1.8c4.2-6.7,10.6-11.5,15.7-17.4
	c0.5-0.6,1.2-1.1,1.8-1.7c1.1-0.9,2.3-1.4,3.4-0.2c1,1.1,0.8,2.4,0,3.5c-0.9,1.2-1.9,2.3-2.9,3.4c-4.8,4.8-9.7,9.5-14.5,14.3
	c-0.5,0.5-0.9,1-1.4,1.6c3.4,2.6,6,5.6,7.2,9.6c1.2,4.2-1,7.8-1.8,11.8c2-2.3,4.1-4.6,5.9-7c2-2.7,4.2-5.1,7.4-6.5
	c3.9-1.7,7.4-4.2,11.8-4.7c0.8-0.1,1.7-0.4,2.4-0.2c0.7,0.2,1.5,0.8,1.6,1.4c0.1,0.4-0.6,1.4-1.2,1.7c-3,1.6-6.2,3-9.2,4.7
	c-2.7,1.4-4.9,3.4-6.5,6c-2,3.1-4.3,5.9-6.1,9.5c2.5-0.4,5.1-0.8,7.6-1.3c8.5-1.6,17-3.3,25.7-3.1c3.6,0.1,7.1,0.4,10.7,0.7
	c0.9,0.1,1.8,0.3,2.7,0.6c4.2,1.2,8.3,2.7,9.1,7.8c0.7,4.4-2.5,10.5-6.8,12.7c-2.4,1.3-5.1,2.2-7.5,3.3c-0.3,1.3-0.3,3-1.1,3.8
	c-1,1-2.6,1.4-4.1,1.6c-7.8,1.4-15.6,1.3-23.3-0.5c-0.4-0.1-0.9-0.1-1.3-0.1c-0.1,0-0.2,0.1-0.4,0.2c2.6,3.1,5,6.2,9.3,7.1
	c2,0.4,3.8,1.6,5.6,2.5c0.9,0.5,1.9,1.1,2.4,1.9c0.5,0.9,0.5,2.1,0.7,3.1c-1,0.1-2.1,0.5-2.8,0.2c-5-2.3-10.1-4.4-14.9-7.2
	c-2.4-1.4-4.1-4-6.1-6.1c-0.5-0.5-0.9-1.1-1.5-1.3c-2.8-1-5.5-2-9-3.1c3.1,2.6,5.7,4.7,8.3,6.9c3.8,3.1,6,7.2,6.8,12
	c0.1,0.8,0.5,1.6,0.4,2.4c-0.3,5.4,2.7,9.5,5.3,13.8c1.3,2.2,2.4,4.4,3.5,6.7c0.5,1,0.5,2.1-0.7,2.7c-1.1,0.6-2,0.2-2.7-0.7
	c-2.5-3.3-5.1-6.5-7.6-9.9c-3.3-4.5-3.8-9.8-4.5-15c-0.4-3.5-0.4-3.5-4.2-6.3c0,1.1,0,1.9,0,2.8c-0.3,4.9-0.4,9.9-1,14.8
	c-1,8.1-5.3,14.9-9.7,21.5c-5,7.5-11.6,6.2-16.8,0.9c-6-6.1-9.4-13.6-10.5-22.1c-0.8-5.6-0.9-11.2-0.4-16.9c0.1-0.7,0-1.3,0-2.4
	c-2.9,2-5,4-4.9,7.5c0.1,5.5-2.2,10.3-3.8,15.3c-1.3,4.2-4.5,7.2-7.4,10.2c-0.5,0.5-1.1,1-1.7,1c-0.8,0-2-0.1-2.4-0.7
	c-0.4-0.5-0.5-1.8-0.2-2.4c0.6-1.5,1.5-2.8,2.5-4.1c1.7-2.4,3.5-4.8,5.4-7.2c0.9-1.1,0.9-2.1,0.8-3.4c-0.1-2.7,0.1-5.5,0.6-8.2
	c0.6-3.1,1.4-6.4,2.7-9.2c0.8-1.9,2.7-3.3,4.3-4.8c1.9-1.8,4-3.4,6-5.1c-0.1-0.2-0.3-0.4-0.4-0.6c-0.6,0.3-1.3,0.6-1.9,1
	c-4,2.9-7.9,6-11.9,8.8c-1.9,1.4-4.2,2.4-6.2,3.5c-0.6,0.3-1.1,0.8-1.6,1.2c-1.6,1.3-3.2,2.7-4.9,3.7c-3.5,2.1-5.5,1.4-7.4-2.9
	c5.3-4.1,12.1-6,17.4-10.8c-1.1,0-1.9,0-2.8,0c-6.9,0.5-13.6-0.2-20.1-2.5c-3.4-1.2-4.3-3.1-3.6-6.8c-2.5-0.9-5.1-1.9-7.6-2.7
	c-2.3-0.8-3.9-2.3-5.2-4.3c-1-1.6-2.1-3-3-4.6c-1.8-3.2-1.3-4.7,2-6.4c5.4-2.8,11.3-3.1,17.2-3c10.7,0.1,21.4,1.1,32,2.5
	c1.8,0.2,3.6,0.5,6,0.8c-0.7-1.3-1.1-2-1.6-2.7c-1.7-2.5-3.5-4.9-5.2-7.3c-0.9-1.3-1.7-2.6-2.9-4.6c-1.6-0.7-3.9-1.6-6.2-2.7
	c-1-0.5-2.2-0.9-3-1.7c-0.5-0.5-0.8-1.7-0.6-2.3c0.3-1.1,1.4-1.5,2.5-0.9c2.6,1.2,5.2,2.5,7.7,3.8c0.4,0.2,0.8,0.6,1.2,0.7
	c4.1,0.8,6.2,4,8.5,7c1.5,2,3.1,4,4.5,5.9c1.8-0.7,1.2-1.7,0.7-2.6c-1.2-2.2-1.9-4.4-1.7-6.9c0.2-3.6,1.6-6.7,4.3-9.1
	c0.9-0.8,1.7-1.5,2.8-2.5c-0.7-0.9-1.3-1.8-2.1-2.5c-4.2-3.9-8.5-7.7-12.8-11.6c-1.4-1.2-2.7-2.5-4.1-3.7c-1.1-1-1.2-2.2-0.2-3.3
	c1.1-1.2,2-0.7,3,0.2c2.7,2.4,5.4,4.7,8,7.1C122.7,36,126.8,40,131.2,44.2"/>
</svg>
