<?xml version="1.0" encoding="utf-8"?>
<!-- Generator: Adobe Illustrator 24.3.0, SVG Export Plug-In . SVG Version: 6.00 Build 0)  -->
<svg version="1.1" id="Layer_1" xmlns="http://www.w3.org/2000/svg" xmlns:xlink="http://www.w3.org/1999/xlink" x="0px" y="0px"
	 viewBox="0 0 267.7 176.1" style="enable-background:new 0 0 267.7 176.1;" xml:space="preserve">
<style type="text/css">
	.st0{fill:#6C9187;}
	.st1{fill:#FFFFFF;}
</style>
<path class="st0" d="M3.4,0C1.5,0,0,1.5,0,3.4v169.4c0,1.9,1.5,3.4,3.4,3.4h261c1.9,0,3.4-1.5,3.4-3.4V3.4c0-1.9-1.5-3.4-3.4-3.4
	H3.4z"/>
<path class="st1" d="M187.2,106.2c-0.6-0.7-1-1.2-1.7-2C185.2,105.9,185.2,106.8,187.2,106.2 M207.4,87.2h-4.6
	c1.7,1.6,3.1,2.9,4.6,4.4V87.2z M199.7,42.8h-5.6v3.4c2-0.2,3.8-0.5,5.6-0.7V42.8z M200.1,38.5c-0.1-1.4-0.2-2.4-0.2-3.5
	c-2.1,0.1-3.6,0.2-5.5,0.2c-0.1,1.2-0.2,2.4-0.4,3.6C196.1,38.8,197.8,38.7,200.1,38.5 M196,106c-3.6-3.9-6.9-7.4-10.5-11.4
	c-0.3,2.8-0.7,5,1.6,6.6c1,0.7,1.7,1.9,2.4,2.9C191,106.2,192.9,106.9,196,106 M185.5,86.9c-0.1,1.6-0.4,2.6,0.7,3.8
	c4.4,4.6,8.7,9.2,12.8,14c1.5,1.7,3.1,2.2,5.2,1.6C202.7,103.5,188.2,88.3,185.5,86.9 M206.7,103.7c0.2-0.1,0.5-0.2,0.7-0.3
	c0-1.4-0.1-2.8,0-4.1c0.2-1.9-0.3-3.2-1.7-4.5c-2.3-2.1-4.3-4.4-6.6-6.6c-0.6-0.6-1.4-1.4-2.2-1.5c-1.9-0.2-3.8-0.1-6.6-0.1
	C196.2,92.7,201.5,98.2,206.7,103.7 M181.8,101.4c0-12.1,0-24.2,0-36.3c0-3.5,0.7-6.9,2.2-10c0.6-1.3,1.3-2.9,2.4-3.8
	c2.4-1.9,2.8-4.2,2.6-7c-0.2-2.5-0.1-5.1-0.1-7.6c0-4.5,2.1-6.8,6.7-7c1.7-0.1,3.5-0.1,5.2-0.1c3.1-0.1,4.6,1,4.7,4.1
	c0.2,3.7,0.2,7.4,0.1,11c-0.1,2.4,0.4,4.3,2.1,6.2c3.4,3.8,3.9,8.8,4,13.6c0.2,7.2-0.1,14.5-0.2,21.8c-0.1,6.5-0.3,13.1-0.4,19.6
	c-0.1,11.3-0.1,22.6-0.3,33.8c0,1.4-0.2,2.8-0.6,4.1c-0.6,1.8-2,2.8-3.9,2.8c-6.8-0.2-13.6-0.4-20.4-0.6c-1.9-0.1-2.9-1.2-3.3-2.9
	c-0.3-1.3-0.5-2.7-0.5-4.1c0-12.5,0-25.1,0-37.6H181.8z"/>
<path class="st1" d="M139.3,60.9c4.8,0.2,9.7,0.3,14.5,0.7c3,0.2,3.7,1,3.4,3.9c-0.7,6.9-1.3,13.7-2.4,20.5
	c-1.9,11.8-3.6,23.6-4.6,35.6c-0.2,2.7-0.6,2.9-3.1,3c-8.2,0.1-16.3,0.3-24.5,0.4c-3.7,0.1-4.5-0.6-4.5-4.3c-0.2-14.4-0.7-28.7-3-43
	c-0.6-3.9-1-7.8-1.5-11.6c-0.4-2.9,0.5-3.9,3.6-4c7.4-0.3,14.7-0.6,22.1-0.9C139.2,61,139.3,60.9,139.3,60.9"/>
<path class="st1" d="M93.6,120.3c5.1,0,10.1,0,15.2,0c3.4,0,4,0.5,4.1,4c0.1,3.7,0.2,7.3,0.2,11c-0.1,6-3.8,10.1-10.2,10.3
	c-10.3,0.3-20.7,0.2-31,0.2c-2.6,0-4.9-1-6.8-2.8c-1.5-1.4-2.4-3.1-2.3-5.2c0.1-3.1,0.3-6.2,0.3-9.3c0-1.7,0.8-2.6,2.1-3.2
	c3.5-1.7,7.1-3.3,10.7-4.8c0.8-0.3,1.8-0.3,2.7-0.3c5.1,0,10.1,0,15.2,0C93.6,120.2,93.6,120.3,93.6,120.3"/>
<path class="st1" d="M103.6,103.4c-3.2,1.4-6.6,2.9-9.9,4.4c-6.4,2.9-12.7,6-19.1,8.7c-4.5,1.9-9.2,3.5-13.9,5
	c-2.8,0.9-3.6,0.2-4.1-2.8c-0.6-3.8,1.1-6.6,4.3-8.3c7.8-4.1,15.2-9.1,23.8-11.5c3.5-1,7-2.3,10.4-3.6c2.4-0.9,4.4-0.1,5.8,1.7
	C102.1,98.6,104,100.1,103.6,103.4"/>
<path class="st1" d="M134.3,128.3c4,0,8.1-0.1,12.1,0c3.9,0.1,4.6,0.8,4.4,4.8c-0.1,2.5-0.3,5.1-0.8,7.5c-0.6,3.2-2.3,5-5.6,5.1
	c-6.5,0.2-13.1,0.2-19.7-0.1c-3.2-0.1-5.2-2.4-5.5-5.7c-0.3-3.4-0.4-6.9-0.4-10.3c0-1.8,1.3-1.9,2.7-1.9c4.3,0,8.5,0,12.8,0
	C134.3,127.9,134.3,128.1,134.3,128.3"/>
<path class="st1" d="M137.7,59c-6.6,0.3-13.3,0.6-19.9,0.9c-4,0.2-5.3-1.3-4.4-5.2c0.2-0.9,0.6-1.7,1-2.6c0.7-1.8,2-2.6,4-2.5
	c5.2,0.1,10.3-0.1,15.5-0.2c4.5-0.1,8.9-0.4,13.4-0.5c2.9-0.1,5.7,0.6,8.1,2.5c1.6,1.3,2.4,5,1.2,6.5c-0.6,0.7-1.9,1.3-2.9,1.3
	c-5.3,0.1-10.6,0.1-15.8,0.1C137.7,59.2,137.7,59.1,137.7,59"/>
<path class="st1" d="M97,118.9c-3.2,0-6.4,0-9.6,0c-0.6,0-1.6-0.5-1.6-0.8c0-0.7,0.4-1.4,0.8-2.1c0.1-0.2,0.4-0.3,0.6-0.4
	c5-1.4,9.9-3.1,14.9-4c1.9-0.4,4.2,0.7,6.2,1.5c1.4,0.5,2.1,1.9,1.9,3.4c-0.2,1.6-1.6,1.9-2.8,2c-3.4,0.3-6.9,0.5-10.3,0.7
	C97,119,97,119,97,118.9"/>
</svg>
