<?xml version="1.0" encoding="utf-8"?>
<!-- Generator: Adobe Illustrator 24.3.0, SVG Export Plug-In . SVG Version: 6.00 Build 0)  -->
<svg version="1.1" id="Layer_1" xmlns="http://www.w3.org/2000/svg" xmlns:xlink="http://www.w3.org/1999/xlink" x="0px" y="0px"
	 viewBox="0 0 267.7 176.1" style="enable-background:new 0 0 267.7 176.1;" xml:space="preserve">
<style type="text/css">
	.st0{fill:#D6B278;}
	.st1{fill:#FFFFFF;}
</style>
<path class="st0" d="M3.4,0C1.5,0,0,1.5,0,3.4v169.4c0,1.9,1.5,3.4,3.4,3.4h261c1.9,0,3.4-1.5,3.4-3.4V3.4c0-1.9-1.5-3.4-3.4-3.4
	H3.4z"/>
<path class="st1" d="M142.2,131.6c10.1,3.4,19.1,1.8,28-2.2c4.2-1.9,8.5-3.3,12.9-4.6c3.3-1,5.3-0.1,7,2.5c2.1,3.2,1.8,5.3-1.4,7.4
	c-3.6,2.4-7.4,4.5-11.1,6.8c-8.3,5.3-17,9.5-26.5,12c-6.9,1.8-13.9,2.6-20.8,0.3c-3.3-1.1-6.7-2.5-9.5-4.4c-7.1-4.9-15-6.3-23.4-6.4
	c-1.6,0-3.3,0.1-4.9,0.2c-3.7,0.4-3.8,0.3-5-3.3c-1.6-0.5-3.4,0.3-5-1.5c-1.4-1.6-3-2.3-2-4.8c0.2-0.6-0.4-1.5-0.8-2.5
	c-1.9,0.1-3.7,0.3-5.5,0.3c-2.9,0-3.2-0.8-2.1-3.4c1.4-3.1,4.4-4.4,6.5-6.6c0.9-1,3-1,4.7-1.2c4.7-0.7,9-2.2,13.1-4.8
	c4.7-3,10.1-4.5,15.4-5.7c3.6-0.8,7.3-0.3,10.8,0.8c3.6,1.1,7.2,2.3,10.6,3.7c4.2,1.7,8.3,2.1,12.7,1.2c2.4-0.5,4.9-0.7,7.3-0.8
	c2.4-0.1,4.3,0.9,5.8,2.8c3.9,4.7,2.5,9.4-3.4,11.1c-2.1,0.6-4.3,1.1-6.5,1.5C147.1,130.6,145,131,142.2,131.6"/>
<path class="st1" d="M142.6,111.4c8.6-6.1,16.2-13.1,23-21c-8.3,7.2-17.2,13.4-27,18.4c-1-5.8,5.5-19.6,12.6-27.2
	c10.7-11.6,28.1-17.5,45.6-17.2c-2.3,14.1-7.4,26.7-18.3,36.3C168.2,109.8,155.9,112.4,142.6,111.4"/>
<path class="st1" d="M106.8,45.8c23,10.2,36.4,36.7,27.7,55.4c-5.5-7.2-9.8-14.9-13.3-23.1c-0.3,0.1-0.5,0.2-0.8,0.4
	c3.2,7.7,6.4,15.3,9.6,22.9C110.6,98.3,97.5,67.5,106.8,45.8"/>
<path class="st1" d="M147.3,20.1c14.4,19.3,13.6,41.5-1.6,56.6c-0.3-4.5-0.8-8.6-0.9-12.6c-0.2-4.1,0-8.2-0.4-12.4
	c-0.7,7.6-1.5,15.3-2.2,22.8C127.1,57.7,131.1,35.4,147.3,20.1"/>
</svg>
