<?xml version="1.0" encoding="utf-8"?>
<!-- Generator: Adobe Illustrator 24.3.0, SVG Export Plug-In . SVG Version: 6.00 Build 0)  -->
<svg version="1.1" id="Layer_1" xmlns="http://www.w3.org/2000/svg" xmlns:xlink="http://www.w3.org/1999/xlink" x="0px" y="0px"
	 viewBox="0 0 267.7 176.1" style="enable-background:new 0 0 267.7 176.1;" xml:space="preserve">
<style type="text/css">
	.st0{fill:#4A3E3C;}
	.st1{fill:#FFFFFF;}
</style>
<path class="st0" d="M3.4,0C1.5,0,0,1.5,0,3.4v169.4c0,1.9,1.5,3.4,3.4,3.4h261c1.9,0,3.4-1.5,3.4-3.4V3.4c0-1.9-1.5-3.4-3.4-3.4
	H3.4z"/>
<path class="st1" d="M117.8,28.9c-0.4-0.1-0.8-0.2-1.1-0.3c-0.6,0.9-1.1,1.8-1.7,2.7c0.2,0.2,0.3,0.5,0.5,0.7c0.8-0.2,2-0.1,2.2-0.5
	C118.1,30.8,117.8,29.8,117.8,28.9 M133.8,60.1c0-1.4-0.1-2.8,0-4.1c0.2-1.4,0.5-3,1.2-4.2c1-1.8,1.1-3.5,0.5-5.3
	c-1.5-4.8-6.7-10.5-13.9-8.2c-2,0.6-4,1.2-6,1.7c-1.1,0.3-2.3,0.5-3.4,0.5c-2.2-0.1-3.8-1.8-3.4-4c1.1-6.4,3.8-12.8,12.1-14.7
	c2.5-0.6,5-0.5,7.5,0.4c9.7,3.4,15.8,10.4,20,19.4c0.2,0.5,0.4,1.1,0.6,1.6c3.2,8.7,1,16.1-6.5,21.6c-1.5,1.1-3,2.2-4.6,3
	c-2.6,1.2-3.9,0.4-4-2.5c-0.1-1.7,0-3.5,0-5.2H133.8z"/>
<path class="st1" d="M133.5,100.9c-1.9-3.1-4.7-4.2-7.9-4.8c0.6,0.4,1.1,1,1.7,1.2c2.8,1.1,3.6,3.1,3.4,6c-0.4,4.8-0.5,9.7-0.8,14.5
	c0,0.5-0.3,1.1-0.5,1.6c-3.4-0.2-6.1-3.1-6.1-6.6c-0.1-4.4-0.1-8.8-0.2-13.2c0-1.5,0.1-3,0.2-4.8c-1-0.4-2.5-0.9-4.1-1.4
	c-8.6-2.7-13.3-8.9-15-17.4c-0.6-3.4,0.8-6.5,3.3-8.7c2.6-2.2,5.5-4.2,8.5-5.9c2.4-1.4,4.3-0.2,4.5,2.6c0.1,1-0.1,2.1,0.1,3.1
	c0.6,3.1,0.3,5.6-3,7.1c-2,0.9-1.8,3.2-0.1,4.5c0.8,0.6,1.8,1,2.7,1.5c6.1,3.1,12.1,6.3,17.3,10.7c1.5,1.3,2.8,2.7,3.9,4.3
	c2.8,4.2,2.5,9-1,12.7c-1.6,1.6-3.6,2.9-5.5,4.1c-1.3,0.8-3,0.4-3.1-1.1C131.9,107.6,130.7,104,133.5,100.9"/>
<path class="st1" d="M122.1,60.1c-0.4-4.9-0.9-9.9-1.3-14.8c-0.1-0.9-0.1-1.8-0.1-2.8c0-2.1,1-3.4,3-3.4c3.3,0,6.1,1.3,8.1,3.9
	c0.6,0.8,0.7,2.2,0.6,3.3c-0.9,6.4-0.6,12.9-0.5,19.3c0.1,4.6,0.2,9.2,0.3,13.8c0,0.8,0,1.6-0.1,2.4c-0.2,1.4-1.2,1.9-2.5,1.6
	c-4.4-0.9-6.7-3.6-7-8.1c-0.3-5.1-0.6-10.1-0.9-15.2C121.8,60.1,122,60.1,122.1,60.1"/>
<path class="st1" d="M129.7,133.6c0.4-1.5-0.5-2.3-1.5-3.2c-3.9-3.2-7.8-6.5-11.6-9.8c-3-2.5-3.8-5-2.3-8.6c0.9-2.1,2.2-4.1,3.7-5.7
	c2-2.1,3.3-1.6,4.2,1.1c0.9,2.9,0.9,5.9-0.2,9.2c2.5,1.9,5,3.9,7.6,5.8c1.8,1.3,3.7,2.4,5.3,3.8c2.9,2.5,4,5.6,2.5,9.3
	c-1.1,2.7-2.3,5.3-3.6,7.8c-0.3,0.6-1.5,1.3-2.1,1.2c-0.5-0.1-1.2-1.3-1.2-2.1c-0.2-1.8,0-3.7-0.2-5.5
	C130.2,135.7,129.9,134.6,129.7,133.6L129.7,133.6z"/>
<path class="st1" d="M129.7,133.5c-0.4,6.1-0.7,12.1-1.1,18.2c-0.1,1.2,0.5,2.9-1.3,3.1c-1.9,0.2-1.9-1.6-2.1-3
	c-0.7-5.8-1.3-11.7-1.9-17.5c-0.1-0.7-0.1-1.4,0-2.1c0.3-2,2-2.9,3.4-1.4C127.6,131.8,128.7,132.7,129.7,133.5
	C129.7,133.6,129.7,133.5,129.7,133.5"/>
<path class="st1" d="M122.4,143.6c0.7,1.7,1.3,2.9,1.5,4.2c0.1,0.6-0.5,1.7-1,1.9c-1.8,0.6-3.8,1-5.7,1.2c-0.6,0.1-1.7-0.5-1.9-1.1
	c-0.2-0.5,0.2-1.7,0.7-2.1C118,146.4,120,145.2,122.4,143.6"/>
<path class="st1" d="M157.7,102.5c8.6-6.2,16.3-13.1,23.1-21.1c-8.3,7.2-17.3,13.4-27.1,18.5c-1-5.8,5.6-19.7,12.6-27.4
	C177.1,61,194.6,55,212.1,55.3c-2.3,14.2-7.4,26.8-18.3,36.4C183.5,100.8,171.1,103.4,157.7,102.5"/>
<path class="st1" d="M55.5,99.7c25.2-2.7,50.1,13.7,51.9,34.2c-8.4-3.5-16-8.1-23.2-13.5c-0.2,0.2-0.4,0.5-0.5,0.7
	c6.6,5.1,13.3,10.1,19.8,15.1C85.3,143.5,58.4,123.2,55.5,99.7"/>
</svg>
