<?xml version="1.0" encoding="utf-8"?>
<!-- Generator: Adobe Illustrator 24.3.0, SVG Export Plug-In . SVG Version: 6.00 Build 0)  -->
<svg version="1.1" id="Layer_1" xmlns="http://www.w3.org/2000/svg" xmlns:xlink="http://www.w3.org/1999/xlink" x="0px" y="0px"
	 viewBox="0 0 267.7 176.1" style="enable-background:new 0 0 267.7 176.1;" xml:space="preserve">
<style type="text/css">
	.st0{fill:#234D72;}
	.st1{fill:#FFFFFF;}
</style>
<path class="st0" d="M3.4,0C1.5,0,0,1.5,0,3.4v169.4c0,1.9,1.5,3.4,3.4,3.4h261c1.9,0,3.4-1.5,3.4-3.4V3.4c0-1.9-1.5-3.4-3.4-3.4
	H3.4z"/>
<path class="st1" d="M177.1,84.5c-11.5,8.2-22.8,16.2-34.4,24.4c3.6,2.7,7,5.1,10.3,7.8c8.2,6.8,16.4,13.7,24.6,20.6
	c0.9,0.7,1.7,1.7,2.3,2.6c1.6,2.4,1.5,3.9-0.5,6c-5.3,5.4-5.3,5.5-10.3,0c-10.3-11.3-22.5-20.5-34.4-30.6c-3,2.4-6,4.4-8.7,6.8
	c-6.4,5.6-12.6,11.3-18.9,16.9c-3.3,2.9-6.8,5.5-10.1,8.2c-1.3,1.1-2.9,1.5-4.3,0.6c-2.1-1.3-3.9-2.9-5.7-4.6
	c-0.4-0.4-0.3-1.8,0-2.6c1-2.5,3-4.1,5.1-5.7c10.7-8.6,21.3-17.3,32-26c0.2-0.1,0.2-0.4,0.5-0.9c-11.7-9.2-23.6-18.3-36.1-26.8
	c-1.5,0.8-1.9,2.1-2,3.7c-0.9,7.7-1.9,15.4-2.8,23.1c-0.3,2.5-1.4,3-3.6,1.5c-8.4-5.9-16.9-11.9-25.3-17.9c-1.1-0.8-2-1.9-2.9-2.7
	c0.4-2.3,2-2.9,3.5-3.6c5.7-2.9,11.2-6.1,15.6-10.7c3.7-3.9,7-8.2,10.4-12.3c1.1-1.3,2.2-2.6,3.4-4.1c4.5,4,9,7.5,12.6,11.7
	c1.9,2.1,4,3.8,6,5.7c1.5,1.4,3.1,2.9,4.2,4.7c1.6,2.7,3.6,4.9,6,6.8c6.5,5.1,12.8,10.2,19.5,15.6c12.6-8.8,24.2-18.4,35.7-28.2
	c-1.2-2.6-2.3-5-3.4-7.5c-0.8-1.8-0.4-3.2,1.3-4.2c6.3-3.9,12.4-8,18.9-11.6c2.5-1.4,5.6-2,8.4-2.2c4.9-0.3,9.9-0.2,14.8,0
	c4.7,0.1,5.5,0.8,6,5.5c0.9,7.1-1.1,13.5-5.2,19.2c-1.9,2.6-4.2,5.1-6.7,7.2c-4.4,3.7-9,7.2-13.5,10.7c-3,2.3-3,2.2-5.6-0.5
	C181.7,88.7,179.4,86.7,177.1,84.5"/>
<path class="st1" d="M80.9,56.1c2,1.3,2,2.5,1.1,3.7c-1.9,2.5-3.8,5.1-5.8,7.5c-0.5,0.5-1.7,0.9-2.3,0.7c-1.1-0.4-0.8-1.5-0.2-2.4
	C76,62.5,78.5,59.3,80.9,56.1"/>
<path class="st1" d="M105.9,31c19.8,4.2,34.7,22.8,31.1,38.9c-5.5-4.7-10.2-10.1-14.3-16c-0.2,0.1-0.4,0.3-0.6,0.4
	c3.8,5.5,7.6,11,11.3,16.4C117.7,71.7,102.2,49.6,105.9,31"/>
<path class="st1" d="M159.3,24.8c3.8,15.4-2.4,28.7-15.6,34c1-2.8,1.7-5.4,2.7-7.9c1-2.5,2.1-5,3-7.7c-2.4,4.5-4.8,8.9-7.2,13.3
	C137.3,42.4,145.5,29.9,159.3,24.8"/>
</svg>
