<?xml version="1.0" encoding="utf-8"?>
<!-- Generator: Adobe Illustrator 24.3.0, SVG Export Plug-In . SVG Version: 6.00 Build 0)  -->
<svg version="1.1" id="Layer_1" xmlns="http://www.w3.org/2000/svg" xmlns:xlink="http://www.w3.org/1999/xlink" x="0px" y="0px"
	 viewBox="0 0 267.7 176.1" style="enable-background:new 0 0 267.7 176.1;" xml:space="preserve">
<style type="text/css">
	.st0{fill:#4A3E3C;}
	.st1{fill:#FFFFFF;}
</style>
<path class="st0" d="M3.4,0C1.5,0,0,1.5,0,3.4v169.4c0,1.9,1.5,3.4,3.4,3.4h261c1.9,0,3.4-1.5,3.4-3.4V3.4c0-1.9-1.5-3.4-3.4-3.4
	H3.4z"/>
<path class="st1" d="M64.9,133.7c-0.2,0.1-0.5,0.1-0.7,0.2c0.1,0.9,0.2,1.7,0.4,2.8c1.1,0,2-0.1,3.6-0.2
	C66.7,135.2,65.8,134.5,64.9,133.7 M124.1,63.6c-1.6-1.2-2.1-2.8-3.7-3.2C120.4,64.1,120.4,64.1,124.1,63.6 M130.9,85.2v4.3
	c1.8-0.1,3.2-0.2,4.7-0.4v-4.4C133.9,84.9,132.4,85.1,130.9,85.2 M122.5,131.7c-0.3,0.1-0.5,0.2-0.8,0.4c0.1,1.9,0.2,3.8,0.3,5.9
	h6.2C126.2,135.7,124.3,133.7,122.5,131.7 M146.7,120c0.5-2.8,0-4.9-0.8-7h-6.9C141.7,115.5,143.9,117.5,146.7,120 M185.7,136.2
	c0.1-0.3,0.3-0.6,0.4-0.8c-2.1-2.1-4.1-4.4-7.2-6.7c0.2,2.9,0.3,4.9,0.4,7.2C181.6,136,183.6,136.1,185.7,136.2 M130.5,63.2
	c-3.6-4-7-7.8-10.4-11.6c-0.2,0.2-0.5,0.3-0.7,0.5c0.4,1,0.5,2.3,1.1,3.1c2.2,2.7,4.6,5.3,6.9,7.9C128.1,63.9,129,64.4,130.5,63.2
	 M139.8,38.4c-0.1,0.2-0.3,0.4-0.4,0.6c2.3,2.7,4.4,5.5,6.9,7.9c0.2-0.1,0.4-0.2,0.6-0.4c-0.1-2.4-0.3-4.8-0.4-7.3
	C144.1,38.9,142,38.6,139.8,38.4 M130.4,80.9c1.8,0.1,3.4,0.3,5.2,0.4v-6.5h-5.2V80.9z M130.8,93.1c-0.3,2.6-1,4.9-0.3,7.5h4.1
	c0.4-2.5,0.8-4.9,1.2-7.5H130.8z M204,120.7c0.2-3.6,0.4-6.5-0.7-9.1h-8C198.3,114.7,200.9,117.5,204,120.7 M80.3,113.3
	c3.2,3.9,7.3,7.4,9.6,8c-0.4-2.7,0.5-5.6-1-8.4C86.1,113,83.4,113.2,80.3,113.3 M62.7,123.3c-0.5,2.6-0.2,4.4,1.7,5.9
	c2.6,2,5.2,3.9,7.7,6c1.8,1.5,3.6,1.6,5.9,0.5C72.8,131.5,67.9,127.5,62.7,123.3 M203.8,128.6c1.1-1.9,0.4-3.1-0.7-4.3
	c-3.7-3.9-7.5-7.8-11.2-11.7c-1.5-1.6-3.2-1.8-5.9-1.2C192.2,117.3,197.9,122.9,203.8,128.6 M122.6,38.8c0.2,0.6,0.2,0.8,0.3,1
	c6.8,7.6,13.6,15.2,20.5,22.8c0.4,0.5,1.3,0.5,2.6,1c-0.5-1.1-0.6-1.5-0.9-1.9c-6-7.3-11.9-14.5-17.9-21.8
	C125.9,38.5,124.4,38.4,122.6,38.8 M129.8,113.7c5.7,5.6,11.1,11,16.9,16.6c0.8-3.5,0.3-5.9-2.1-7.8c-3.1-2.7-6.2-5.4-9.1-8.3
	C133.9,112.7,132.3,112.6,129.8,113.7 M121.9,120.4c-0.6,3.9-0.4,6.6,2.4,8.8c2.2,1.8,4.3,3.7,6,5.9c2.2,2.9,4.8,3.2,8.2,2
	C133.5,131.2,127.6,126.3,121.9,120.4 M196.6,136.1c0.1-0.3,0.2-0.5,0.3-0.8c-5.7-5.3-11.1-10.9-17.1-16.4c-1.3,3.8-0.4,6.2,2.4,8.4
	c2.7,2.2,5.1,4.8,7.5,7.3c1,1,2,1.6,3.4,1.4C194.3,136.1,195.4,136.1,196.6,136.1 M129.9,38.6c5.5,6.7,10.5,13.2,16.2,19.5
	c1.2-4.9,1.2-4.9-1.2-7.9c-2.5-3-5.1-5.8-7.4-8.9C135.6,38.9,133.5,37.8,129.9,38.6 M139.8,63.2c-6.5-7.1-12.9-14-19.4-21.2
	c-1.1,2.6-0.9,4.4,0.8,6.2c3.9,4.2,7.8,8.4,11.5,12.8C134.5,63.4,136.6,64.1,139.8,63.2 M88.9,131.5c1.8-3.4,0.7-5.5-1.8-7.5
	c-3.1-2.5-6.1-5.1-8.9-7.9c-2.5-2.4-5.3-2.3-9-1.5C75.9,120.5,82.3,125.9,88.9,131.5 M203.6,136.9c0.9-2.1,0.5-3.3-0.7-4.4
	c-7-6.9-14-13.8-21-20.7c-0.8-0.8-1.7-1.3-2.8-0.4c-0.4,1.7,0.4,2.9,1.6,4c6.8,6.6,13.6,13.2,20.4,19.8
	C201.8,135.7,202.6,136.2,203.6,136.9 M88.9,135.8c-8.5-7.4-16.6-14.4-24.7-21.4c-0.3-0.2-0.9-0.1-1.3-0.1c-0.7,4.1-0.8,4.1,2,6.4
	c5.5,4.6,11.1,9,16.4,13.7C83.5,136.4,85.6,137.1,88.9,135.8 M147.8,136.6c-1.2-1.6-1.9-2.8-2.9-3.7c-5.9-6-11.9-12-17.9-18
	c-0.4-0.4-0.8-1.1-1.3-1.1c-1.2-0.1-2.8-0.3-3.6,0.4c-1.3,1,0.1,2,0.8,2.9c0.1,0.1,0.2,0.2,0.2,0.3c6.7,6.6,13.3,13.2,20.2,20
	C144.2,137.1,145.5,136.9,147.8,136.6 M127.1,85.7c-2.9-0.1-5.8-0.6-8.5-0.1c-9.6,1.8-19.1,0.8-28.7,0c-4.3-0.4-8.7,0-13,0.2
	c-1.6,0.1-2.4,1.1-2.8,2.7c-0.7,3.6-0.4,7.2-0.4,11c1.4-0.1,2.4-0.2,3.4-0.3c0-1.5-0.1-2.6,0-3.8c0.2-3.2,1-4,4.3-4.4
	c0.8-0.1,1.6-0.2,2.5-0.2c12.3-0.4,24.6-0.7,36.9-1.1c2.1-0.1,4.1-0.1,6.3-0.2V85.7z M195.6,98.6c0-2.8,0.2-5.3,0-7.7
	c-0.3-3.3-2.2-5.3-5.7-5.7c-3.8-0.4-7.7-0.6-11.5-0.5c-6,0-11.9,0.4-17.9,0.5c-6.5,0.1-13.1,0-19.6-0.1c-0.4,0-0.9,0.2-1.4,0.3V89
	c1.9,0,3.5,0,5.1,0c9.1-0.2,18.3-0.5,27.4-0.7c3.5-0.1,7,0.2,10.5,0.4c4.8,0.4,6.3,2.2,6.4,7c0,0.9,0.1,1.8,0.2,2.9H195.6z
	 M126.6,100.8c0.2-2.7,0.4-5,0.7-7.7c-15.8-0.1-31.2-0.2-47,1.4c0.2,1.9,0.3,3.5,0.5,5.4c3.9,0.1,7.5,0.2,11.1,0.2
	c3.5,0,5.3,1.1,6,4.6c0.9,4.2,1.7,8.5,1.9,12.8c0.3,6.8,0,13.6-0.1,20.4c0,0.8-0.2,1.6-0.2,2.5c-0.1,5.4-4.2,7.2-8.6,7.5
	c-6.9,0.5-13.8,0.6-20.7,0.9c-2.9,0.1-5.9,0.2-8.8,0.1c-5.7-0.2-8.6-3-9.3-8.6c-0.1-0.8-0.1-1.6-0.1-2.5c0.2-9.7,0.3-19.5,0.6-29.2
	c0.1-5,3.3-7.9,8.2-8.3c3-0.2,6-0.8,9.4-1.2c0-1.9-0.1-3.7,0-5.5c0.1-2.2,0.3-4.5,0.7-6.6c0.5-2.5,2.1-4.2,4.7-4.6
	c5.1-0.8,10.2-0.9,15.4-0.2c4.1,0.6,8.2,0.8,12.3,0.9c5.1,0.1,10.3,0.4,15.4-1.2c1.1-0.3,2.3,0,3.5,0.1c1.4,0.1,2.8,0.1,4.5,0.2V74
	c-1.5,0-3,0-4.5,0c-2,0-4,0.2-6,0.1c-3.3-0.1-5-1.6-5.3-4.8c-0.3-2.2-0.5-4.4-0.5-6.7c0-8.5,0-16.9,0.2-25.4c0-1.5,0.4-3,1-4.4
	c1.1-2.7,3-4.4,6.1-4.6c3-0.2,6.1-0.6,9.1-1c0.9-0.1,1.9-0.1,2.8-0.1c7,0.2,14.1,0.4,21.1,0.5c4.1,0.1,6.2,1.6,7,5.7
	c0.4,2.2,0.6,4.4,0.6,6.6c0,8.9-0.2,17.8-0.3,26.8c-0.1,5.3-3.3,8.2-8.5,8.1c-3.2,0-6.3,0-9.8,0v6.8c2.1,0.1,4.2,0.2,6.2,0.2
	c5.4,0,10.8,0.1,16.2,0c5-0.1,10.1-0.2,15.1-0.5c4.3-0.3,8.7-0.4,13,0.4c5.1,1,8.2,4,8.8,9.1c0.3,2.7,0.1,5.4,0.1,8.1
	c2.8,1.8,5.7,2.4,8.6,1.7c2-0.5,3,0.1,4,1.7c1.1,1.6,1.6,3.3,1.7,5.2c0.3,5.6,1,11.2,1.3,16.8c0.3,5.8,1.1,11.7-1.1,17.4
	c-1.8,4.7-4.1,5.8-8.9,5.1c-3.7-0.5-7.5-0.8-11.2-0.6c-5.1,0.3-10.2,1.1-15.4,1.6c-2.1,0.2-4.2,0-6.3-0.2c-1.7-0.2-2.7-1.3-3-3
	c-0.1-0.7-0.3-1.4-0.3-2.1c-0.3-11.3-0.7-22.5-0.8-33.8c-0.1-4.4,2.6-7.5,7-8.5c3.4-0.8,6.9-1.3,10.6-2c0.1-0.3,0.4-1,0.4-1.6
	c0.2-3.4-0.2-4-3.5-4.2c-5.3-0.3-10.6-0.6-15.8-0.5c-8.9,0.1-17.8,0.6-27.1,0.9c-0.4,2.8-0.8,5.6-1.2,8.8c2.1,0,3.9,0,5.8,0
	c2,0,4,0.2,6,0c2.7-0.3,4.2,1,4.9,3.4c0.4,1.3,0.8,2.7,0.9,4.1c0.3,3.9,0.4,7.7,0.6,11.6c0.3,5.1,0.8,10.3,1.1,15.4
	c0.1,2.2,0,4.5-0.4,6.6c-0.4,2.3-1.9,3.7-4.3,3.9c-3.2,0.3-6.3,0.5-9.5,0.6c-8,0.3-16,0.4-23.9,0.8c-4.4,0.2-7.4-2.6-7.5-6.8
	c0-7.6-0.7-15.2-1-22.8c-0.1-3.2-0.3-6.3-0.2-9.5c0.1-4.7,2.5-6.9,7.3-7.2C120.5,101.5,123.4,101.1,126.6,100.8"/>
</svg>
