<?xml version="1.0" encoding="utf-8"?>
<!-- Generator: Adobe Illustrator 24.3.0, SVG Export Plug-In . SVG Version: 6.00 Build 0)  -->
<svg version="1.1" id="Layer_1" xmlns="http://www.w3.org/2000/svg" xmlns:xlink="http://www.w3.org/1999/xlink" x="0px" y="0px"
	 viewBox="0 0 267.7 176.1" style="enable-background:new 0 0 267.7 176.1;" xml:space="preserve">
<style type="text/css">
	.st0{fill:#D6B278;}
	.st1{fill:#FFFFFF;}
</style>
<path class="st0" d="M3.4,0C1.5,0,0,1.5,0,3.4v169.4c0,1.9,1.5,3.4,3.4,3.4h261c1.9,0,3.4-1.5,3.4-3.4V3.4c0-1.9-1.5-3.4-3.4-3.4
	H3.4z"/>
<path class="st1" d="M214.3,72.1c-6.7-2.9-13.1-5.8-19.5-8.6c-5.7-2.5-11.5-4.8-17.2-7.3c-3.2-1.3-6.4-2.6-9.5-4.1
	c-1.7-0.8-3-0.5-4.5,0.3c-10.4,5.1-20.7,10.2-31.1,15.2c-9.2,4.4-18.4,8.7-27.5,13.1c-1.2,0.6-2.2,1.5-3.6,2.5
	c-0.7-0.8-1.5-1.6-2-2.5c-1.3-2.8-2.5-5.7-3.7-8.6c-0.7-1.9-0.3-2.4,1.3-3.2c7.3-3.4,14.7-6.7,21.9-10.3c14-6.9,27.9-14,41.8-21
	c3-1.5,5.9-1.7,9.2-0.3c15.1,6.4,30.4,12.4,45.4,18.9c8.5,3.6,16.7,7.8,25.1,11.7c1.6,0.7,2,2,1.5,3.4c-0.6,2-1.6,3.8-2.4,5.7
	c-0.2,0.5-0.7,0.9-1,1.4c-0.6,0.9-0.9,2.5-1.7,2.7c-1.1,0.3-2.4-0.3-3.6-0.7c-1.8-0.7-3.6-1.5-5.8-2.5c0,1.8-0.1,3.3,0,4.7
	c0.3,6.5,0.8,12.9,0.9,19.4c0.1,7,0,14.1-0.1,21.1c0,2.6-0.4,2.9-2.9,3.4c-2.4,0.4-4.8,0.7-7.2,1c-1.9,0.2-2.8-0.6-2.9-2.9
	c-0.1-4.3,0-8.6-0.1-12.8C214.9,98.7,214.6,85.7,214.3,72.1"/>
<path class="st1" d="M159.7,90.2c2.3,5.4,1.7,10.4,0.9,15.4c-0.2,1-1.5,1.4-2.2,0.5c-1.3-1.8-3-1.3-4.7-1.4
	c-2.7-0.1-5.5-0.4-8.7-0.7c-0.2,2.1-0.7,4-0.6,5.9c0.3,7.8,0.6,15.7,1.1,23.5c0.2,3.5-0.4,4.7-3.8,5.4c-2.6,0.5-5.2,1-7.9,1.2
	c-2.4,0.2-2.9-0.5-2.2-2.8c0.2-0.5,0.4-1.1,0.4-1.6c-0.3-10.4-0.6-20.8-0.9-31.6c-1.5,0-2.7,0-3.9,0c-15.3,0.5-30.5,1-45.8,1.4
	c-8,0.2-16,0-23.9,0c-1.3,0-2.5,0-4.1,0c-0.2,2.9-0.3,5.5-0.5,8.1c-0.3,4.8-0.6,9.7-0.8,14.5c-0.1,2.7,0.1,5.3,0.1,8
	c0,2.7-0.7,3.6-3.3,3.6c-2,0-3.9-0.2-5.9-0.4c-1.8-0.2-2.7-1.2-2.6-3c0-0.3,0-0.7,0-1c-0.2-9-0.5-18-0.8-27c0-1-0.1-2-0.3-3.5
	c-2-0.2-3.9-0.4-5.8-0.5c-1.4-0.1-2.8,0.1-4.2,0c-1.4,0-2.7-0.9-2.8-2.2c-0.2-3.5-1.2-7.1,1-10c10.7,0,20.9,0,31.2,0
	c20.1-0.1,40.2,0.1,60.3-1c9.9-0.5,19.9-0.1,29.8,0c2.1,0,4.2,0.3,6.2,0.6C156.8,91.8,158.3,92,159.7,90.2"/>
<path class="st1" d="M206.1,88.4c0,3.7-0.1,7.4,0,11.1c0.1,2.9-0.2,3.4-3.1,3.7c-3.1,0.3-6.2,0.5-9.3,0.6c-2.3,0.1-4.6,0.1-6.9,0.1
	c-2.7,0-4-0.8-4.4-3.4c-1.1-8.1-2.2-16.2-3-24.3c-0.3-3.3,0.3-3.8,3.7-3.9c5.9-0.2,11.8-0.3,17.6-0.4c4.7-0.1,5.3,0.6,5.3,5.4
	C206,81,206,84.7,206.1,88.4C206,88.4,206,88.4,206.1,88.4"/>
</svg>
