<?xml version="1.0" encoding="utf-8"?>
<!-- Generator: Adobe Illustrator 24.3.0, SVG Export Plug-In . SVG Version: 6.00 Build 0)  -->
<svg version="1.1" id="Layer_1" xmlns="http://www.w3.org/2000/svg" xmlns:xlink="http://www.w3.org/1999/xlink" x="0px" y="0px"
	 viewBox="0 0 267.7 176.1" style="enable-background:new 0 0 267.7 176.1;" xml:space="preserve">
<style type="text/css">
	.st0{fill:#D6B278;}
	.st1{fill:#FFFFFF;}
</style>
<path class="st0" d="M3.4,0C1.5,0,0,1.5,0,3.4v169.4c0,1.9,1.5,3.4,3.4,3.4h261c1.9,0,3.4-1.5,3.4-3.4V3.4c0-1.9-1.5-3.4-3.4-3.4
	H3.4z"/>
<path class="st1" d="M119.7,159.8c-1.3,1.9-1.3,1.8-3.7,0.9c-0.4-0.2-1,0.2-1.4,0.2c-0.7,0-1.7,0.2-2.2-0.2
	c-2.3-1.9-5.1-1.3-7.1-0.4c-2.8,1.2-5.5,0.2-8.2,0.5c-0.4,0-1.1-0.8-1.3-1.4c-0.5-1.5-1-3.1-1-4.7c-0.1-1.8-0.7-3.1-1.9-4.3
	c-9.8-10.5-19.4-21.3-30-31c-1.6-1.5-3.1-3.1-4.6-4.7c-2.3-2.4-2.9-5.4-2.9-8.6c0-2.2,0.2-4.4,0.3-6.5c0.3-6,0.6-11.9,0.8-17.9
	c0.1-2.8-0.3-5.5,0-8.3c0.2-2.4,0.8-4.7,1.5-7c0.4-1.5,1.4-2.6,3.3-2.4c2.4,0.2,4.8,0.1,7.2,0.4c2.5,0.3,4.2,1.9,4.4,4.5
	c0.3,2.6,0.7,5.3,0.7,7.9c0.1,6.8,0.1,13.6,0.1,20.4c0,1.5,0.3,2.6,1.4,3.7c7.1,6.5,14.2,13.1,21.4,19.6c0.3,0.3,0.7,0.5,1.1,0.8
	c1.7-3.2,1.5-4.4-0.7-6.7c-3.8-3.9-7.3-7.9-10.3-12.4C83,96.9,87.4,88.4,94,87.2c2.1-0.4,3.9,0.8,5.2,2.2
	c8.7,9.1,17.4,18.4,26.1,27.5c2,2.1,2.2,4.8,2.2,7.4c0,5.3-0.2,10.6-0.3,15.9c-0.1,4.4-0.1,8.7-0.1,13.1c0,2.4-2.3,6.4-4.6,6.9
	C121.7,160.5,120.7,160,119.7,159.8"/>
<path class="st1" d="M168.7,117.6c1.1,1.3,2.1,2.4,3.3,3.8c2.9-2.4,5.8-4.4,8.3-6.9c5-4.9,9.8-10.1,14.6-15.1
	c1.2-1.2,1.7-2.7,1.6-4.4c-0.1-3.4-0.2-6.9-0.2-10.4c0.1-5.1,0.2-10.1,0.6-15.2c0.5-5.1,4.9-7.2,9.7-5.2c3.1,1.3,4.9,3.2,5,6.7
	c0.1,3.3,0.4,6.7,0.4,10c0.1,7.9,0.1,15.9,0.3,23.8c0.1,5-1.7,9-4.6,13c-6.7,9.5-15.6,16.8-24.2,24.5c-2.2,2-4.2,4.3-6,6.6
	c-1.5,2-2.7,4.3-2.3,7c0.3,2-0.7,3.2-2.5,3.5c-2.2,0.4-4.4,1.3-6.7,0.4c-1.4-0.5-2.9-0.6-3.8,1.2c-0.2,0.5-1.2,0.8-1.7,0.8
	c-2.1-0.3-4.2-0.6-6.2-1.2c-1.8-0.5-3.1,0.1-4.4,1.2c-1.9-0.6-3.5-2-5.8-1.5c-1.7,0.4-2.8-1-3.1-3c-0.2-2.2-0.4-4.4-0.4-6.5
	c0-6.3,0-12.7,0.2-19c0.1-2.6,0.4-5.3,0.7-7.9c0.6-5.3,4.3-8.8,7.8-12.3c6.3-6.3,12.8-12.2,19.3-18.3c2.2-2,4.8-3.5,7.8-2.2
	c3.1,1.3,5,3.9,5.7,7.3c0.7,3.4-0.5,6.1-2.5,8.6c-1.5,1.8-3.3,3.5-5,5.2C172.9,113.8,171,115.5,168.7,117.6"/>
<path class="st1" d="M128.8,88.8c1.7-3.6,4.7-4.8,6.3-7.6c-1,0.5-2,1-2.9,1.6c-1.5,1-2.9,2.3-4.5,3.3c-0.5,0.3-1.5,0.3-1.9,0
	c-0.5-0.5-0.6-1.3-0.8-2.1c-0.1-0.3,0.2-0.7,0.3-1c3.6-8.8,7.9-17.2,14.8-23.9C146.5,53,154,49,163.1,48.4c2.8-0.2,5.5-0.6,8.2-0.6
	c1.9,0,2.7,1.3,2,3c-2.7,6.7-5.2,13.5-8.5,20c-3.5,7-9.3,12.1-16.1,15.7c-2.9,1.6-6.6,1.9-9.9,2.6c-2,0.4-4.1,0.6-6.2,0.7
	C131.5,89.7,130.4,89.2,128.8,88.8"/>
<path class="st1" d="M102.3,34.7c1,0.6,1.8,1,2.5,1.6c6.8,5.8,12.5,12.5,16.3,20.7c2.3,4.9,3.3,10,3.1,15.4
	c-0.1,2.2-0.2,4.4-0.6,6.5c-0.1,0.6-0.8,1.6-1.4,1.7c-0.6,0.1-1.6-0.4-2-0.9c-1.2-1.5-2.1-3.2-3.7-4.5c0.5,1.1,1.1,2.2,1.4,3.4
	c0.2,0.8,0.3,1.9-0.1,2.5c-0.8,1-1.9,0.4-2.7-0.3c-4.5-4.5-8.7-9.1-11.8-14.8c-5-9-4.7-18.3-2.8-27.8c0.1-0.7,0.4-1.3,0.7-1.9
	C101.3,35.8,101.7,35.5,102.3,34.7"/>
<path class="st1" d="M134.6,14.5c1.2,2.5,2.3,4.9,3.5,7.4c4.8,10.3,4.9,20.7,0.6,31.1c-0.9,2.2-2.2,4.3-3.5,6.3
	c-0.4,0.6-1.5,1.3-2.2,1.2c-1.2-0.2-1.3-1.4-1.1-2.5c0.6-3.4,0.3-6.8-0.8-10.3c-0.2,0.7-0.6,1.4-0.6,2.1c-0.3,2.9-0.4,5.7-0.7,8.6
	c-0.1,0.6-0.6,1.6-0.9,1.6c-0.7,0-1.4-0.5-2-0.8c-0.3-0.2-0.4-0.6-0.5-0.9c-1.6-4.3-3.4-8.6-4.7-13c-1.6-5.4-0.3-10.5,2.4-15.3
	c2.3-4.1,4.5-8.3,6.8-12.4c0.7-1.2,1.8-2.2,2.8-3.2C133.9,14.4,134.3,14.4,134.6,14.5"/>
</svg>
